<svg width="807" height="706" viewBox="0 0 807 706" fill="none" xmlns="http://www.w3.org/2000/svg">
<path d="M403.5 705.307C626.182 705.307 806.702 650.85 806.702 583.674C806.702 516.498 626.182 462.041 403.5 462.041C180.818 462.041 0.297852 516.498 0.297852 583.674C0.297852 650.85 180.818 705.307 403.5 705.307Z" fill="url(#paint0_linear)"/>
<path d="M199.556 518.273L307.945 469.579H457.898L557.527 523.163C557.731 523.366 428.967 587.748 199.556 518.273Z" fill="#FFA14D"/>
<path d="M318.54 5.86624C299.185 12.9971 286.145 30.9263 276.162 48.8554C266.179 66.7846 257.622 86.1399 242.749 100.402C212.595 129.129 161.864 130.963 137.007 164.376C115.818 192.492 124.579 238.13 154.733 256.67C159.623 259.523 164.716 261.968 168.791 266.043C178.774 276.026 177.144 292.325 173.884 306.179C170.828 319.83 166.957 335.11 174.088 347.335C181.015 359.356 196.703 363.838 210.558 362.615C224.412 361.393 237.451 355.892 250.898 352.428C264.345 348.965 279.626 347.946 291.443 355.077C308.149 365.264 312.428 387.472 324.856 402.345C341.97 422.922 372.939 427.201 398.814 420.478C424.689 413.754 447.508 398.27 470.53 384.823C493.757 371.172 519.02 358.948 545.914 359.967C563.843 360.578 582.791 366.894 598.683 358.744C617.223 349.169 621.298 322.479 611.518 303.938C604.388 290.288 591.144 278.674 591.348 263.394C591.348 257.078 593.793 251.17 596.034 245.261C606.629 217.756 613.963 185.158 598.275 160.098C579.124 128.518 532.875 123.628 510.463 93.882C493.349 71.2669 493.757 38.2609 473.994 17.6832C461.362 4.6438 442.21 -1.06093 424.077 0.161515C413.687 0.772736 403.5 3.42136 393.72 7.29242C385.163 10.756 377.421 18.0907 368.66 14.6271C360.103 11.1635 354.195 5.25502 344.619 3.6251C336.062 2.19892 326.893 2.81014 318.54 5.86624Z" fill="#5931AF"/>
<path d="M338.302 530.091C334.838 529.887 330.356 530.702 327.096 529.276C322.002 527.034 316.298 523.163 313.445 518.274C308.759 510.939 307.333 503.604 296.535 503.197C287.163 502.789 282.681 508.902 275.957 513.588C270.66 517.255 263.529 518.885 257.417 520.311C255.787 520.719 240.71 524.59 233.172 525.405C231.134 525.608 229.912 527.849 230.931 529.887C231.338 530.702 231.949 531.517 232.561 531.924C233.376 532.332 234.19 532.535 235.005 532.535C255.379 534.98 275.55 537.221 295.924 539.666C303.258 542.111 310.593 544.76 317.928 547.205C325.874 549.853 333.208 553.928 340.339 558.41L347.878 530.294C344.618 530.091 341.358 530.091 338.302 530.091Z" fill="#FFBFA8"/>
<path d="M608.666 517.662C578.512 497.288 538.579 495.862 504.147 503.4C484.384 507.678 465.436 514.606 446.081 519.495C427.948 523.978 409.612 526.626 391.071 528.053C388.015 528.256 347.878 530.294 347.878 530.09L340.34 558.206C344.211 560.651 347.878 563.096 351.749 565.337C362.548 571.857 371.105 581.229 380.68 589.175C409.204 613.216 446.489 626.255 483.162 630.126C489.885 630.941 496.609 631.349 503.332 631.553C530.022 632.164 558.342 630.738 583.198 620.143C595.83 614.642 607.647 606.289 615.389 595.083C631.077 571.653 634.133 534.98 608.666 517.662Z" fill="#FFAF6E"/>
<path d="M302.035 540.277C276.364 529.275 248.044 518.477 219.52 514.606C207.092 512.976 194.664 512.568 182.44 513.994C171.641 515.217 160.436 518.273 152.082 525.404C144.34 531.924 139.45 541.092 136.191 550.668C133.542 558.206 131.912 566.152 133.338 573.894C135.579 586.322 145.155 596.306 154.731 603.64C186.311 628.089 223.595 642.147 262.713 649.482C316.501 659.261 372.122 659.058 426.52 654.575C444.45 653.149 462.175 651.315 480.104 648.667L483.16 614.235C421.834 591.416 362.139 566.152 302.035 540.277Z" fill="#FFA14D"/>
<path d="M600.311 656.205C593.587 652.538 581.159 643.369 579.733 642.351C574.64 638.683 568.527 634.609 565.064 629.108C560.582 622.18 558.544 614.846 549.783 611.79C539.596 608.122 535.522 614.438 528.391 619.532C523.705 622.792 517.185 624.422 511.48 624.625C501.904 621.162 492.532 617.698 482.956 614.235L479.9 648.667C488.865 647.444 497.626 646.018 506.387 644.184L536.744 645.814C556.507 651.111 576.27 656.612 596.032 661.91C596.847 662.113 597.662 662.317 598.681 662.317C599.292 662.317 600.107 661.706 600.922 661.095C602.348 659.669 602.145 657.224 600.311 656.205Z" fill="#FFBFA8"/>
<path d="M157.38 503.807L131.709 514.402C125.189 517.254 123.356 525.404 127.838 530.905C132.32 536.406 139.451 538.647 146.175 536.813C160.233 532.942 189.571 522.959 193.646 510.735C199.351 493.62 170.012 490.361 167.975 490.157H167.771L138.433 492.602C137.618 492.602 137.006 493.417 137.21 494.232C137.618 496.269 139.451 499.529 145.971 500.14L157.38 500.344C158.399 500.344 159.01 501.566 158.399 502.381L157.788 503.196C157.788 503.604 157.584 503.807 157.38 503.807Z" fill="#FFBFA8"/>
<path d="M187.941 506.66L277.79 389.509L312.63 266.45L305.091 238.945C305.091 238.945 265.566 244.65 256.397 277.248C247.433 309.847 238.468 365.264 238.468 365.264L172.66 499.936L187.941 506.66Z" fill="#FFBFA8"/>
<path d="M604.183 503.807L629.854 514.402C636.374 517.254 638.207 525.404 633.725 530.905C629.243 536.406 622.112 538.647 615.388 536.813C601.33 532.942 571.992 522.959 567.917 510.735C562.212 493.62 591.551 490.361 593.588 490.157H593.792L623.131 492.602C623.946 492.602 624.557 493.417 624.353 494.232C623.946 496.269 622.112 499.529 615.592 500.14L604.183 500.344C603.164 500.344 602.553 501.566 603.164 502.381L603.775 503.196C603.979 503.604 603.979 503.807 604.183 503.807Z" fill="#FFBFA8"/>
<path d="M573.622 506.66L483.772 389.509L448.933 266.45L456.471 238.945C456.471 238.945 495.997 244.65 505.165 277.248C514.13 309.847 523.094 365.264 523.094 365.264L588.902 499.936L573.622 506.66Z" fill="#FFBFA8"/>
<path d="M292.052 239.76L315.889 417.625L308.147 469.783H458.1L451.988 416.81L469.51 239.76L410.832 218.775H350.729L292.052 239.76Z" fill="white"/>
<path d="M244.581 332.258L290.83 344.075L302.851 301.901L292.256 239.76C292.256 239.76 265.77 248.113 256.805 277.248C247.841 306.383 244.581 332.258 244.581 332.258Z" fill="white"/>
<path d="M516.982 332.258L470.733 344.075L461.361 311.069L469.307 239.556C469.307 239.556 495.793 247.909 504.758 277.044C513.723 306.179 516.982 332.258 516.982 332.258Z" fill="white"/>
<path d="M371.308 174.156L350.73 218.775H410.834L393.108 174.156H371.308Z" fill="#FFBFA8"/>
<path d="M362.955 180.064C362.955 180.064 367.03 200.438 380.68 200.438C395.35 200.438 401.258 179.045 401.258 179.045L362.955 180.064Z" fill="#5931AF"/>
<path d="M381.494 242.001C368.658 242.001 350.933 235.278 350.933 218.775H411.036C410.832 234.463 394.737 242.001 381.494 242.001Z" fill="#FFBFA8"/>
<path d="M439.154 101.42C439.154 136.056 413.075 191.881 380.68 191.881C348.49 191.881 322.207 136.056 322.207 101.42C322.207 66.7844 348.49 38.8719 380.884 38.8719C413.075 38.8719 439.154 66.9881 439.154 101.42Z" fill="#FFBFA8"/>
<path d="M335.246 128.314C335.246 135.445 329.542 141.15 322.411 141.15C315.28 141.15 309.575 135.445 309.575 128.314C309.575 121.183 315.28 115.479 322.411 115.479C329.542 115.479 335.246 121.183 335.246 128.314Z" fill="#FFBFA8"/>
<path d="M451.989 128.314C451.989 135.445 446.284 141.15 439.153 141.15C432.022 141.15 426.317 135.445 426.317 128.314C426.317 121.183 432.022 115.479 439.153 115.479C446.284 115.479 451.989 121.183 451.989 128.314Z" fill="#FFBFA8"/>
<path d="M380.681 134.427L375.588 149.911H386.182L380.681 134.427Z" fill="#FF6897"/>
<path d="M361.529 153.782C361.529 153.782 369.068 159.283 382.515 159.283C395.961 159.283 402.277 153.782 402.277 153.782C402.277 153.782 399.018 167.433 381.903 167.433C364.585 167.433 361.529 153.782 361.529 153.782Z" fill="white"/>
<path d="M344.211 130.759C344.211 130.759 351.953 135.649 365.4 132.593" stroke="#5050C9" stroke-miterlimit="10"/>
<path d="M396.37 131.982C396.37 131.982 404.52 136.057 417.559 131.371" stroke="#5050C9" stroke-miterlimit="10"/>
<path d="M354.806 150.318C354.806 154.801 351.139 158.468 346.656 158.468C342.174 158.468 338.507 154.801 338.507 150.318C338.507 145.836 342.174 142.169 346.656 142.169C351.139 142.169 354.806 145.836 354.806 150.318Z" fill="#FF6897"/>
<path d="M417.558 158.468C422.059 158.468 425.707 154.819 425.707 150.318C425.707 145.817 422.059 142.169 417.558 142.169C413.057 142.169 409.408 145.817 409.408 150.318C409.408 154.819 413.057 158.468 417.558 158.468Z" fill="#FF6897"/>
<path d="M324.448 112.015L322.207 154.393C322.411 154.393 353.991 100.402 324.448 112.015Z" fill="#5931AF"/>
<path d="M436.097 112.015L438.338 154.393C438.134 154.393 406.554 100.402 436.097 112.015Z" fill="#5931AF"/>
<path d="M315.279 115.682H362.14L367.844 91.0297L371.104 115.682H444.043C444.043 115.682 443.636 32.9637 379.865 32.9637C316.094 32.9637 315.279 115.682 315.279 115.682Z" fill="#45269B"/>
<defs>
<linearGradient id="paint0_linear" x1="403.491" y1="705.288" x2="403.491" y2="461.906" gradientUnits="userSpaceOnUse">
<stop stop-color="#5265A5" stop-opacity="0.1"/>
<stop offset="1" stop-color="#89AAD5"/>
</linearGradient>
</defs>
</svg>
