<svg width="571" height="571" viewBox="0 0 571 571" fill="none" xmlns="http://www.w3.org/2000/svg">
<path d="M37.6324 321.345C37.6324 321.345 50.4862 312.466 66.9178 343.342C83.3495 374.217 89.8426 392.107 89.8426 392.107C89.8426 392.107 94.2156 398.6 98.5885 394.227C102.961 389.854 108.925 377.663 116.61 379.65C124.561 381.771 127.344 390.517 126.019 403.503C124.694 416.489 123.103 445.112 122.838 447.63C122.573 450.148 124.164 453.858 127.741 451.34C131.319 448.822 151.064 425.898 161.4 435.969C171.736 446.04 162.327 481.686 161.267 485.661C160.207 489.636 161.135 491.227 162.99 492.154C164.845 493.082 170.808 484.733 176.771 478.373C182.734 472.012 190.685 465.784 196.118 472.145C201.551 478.505 203.804 505.008 179.289 548.737L166.568 568.217L143.245 567.422C93.4205 562.651 72.8809 545.557 70.7607 537.474C68.6405 529.39 78.4465 526.475 86.9273 525.15C95.4082 523.825 105.744 523.825 106.009 521.705C106.274 519.584 105.347 517.994 101.636 516.537C97.9259 515.079 63.2074 502.49 60.8222 488.311C58.437 474.132 88.65 470.952 92.6254 469.494C96.6008 468.037 94.4806 464.724 92.3604 463.399C90.2401 462.074 65.7252 447.1 54.3291 440.739C42.9329 434.378 37.3674 427.09 40.1501 419.272C42.8004 411.851 56.3168 413.971 62.4124 412.779C68.508 411.586 65.7252 404.43 65.7252 404.43C65.7252 404.43 54.7266 389.059 38.825 357.786C22.9234 326.513 37.8974 321.08 37.8974 321.08" fill="#F5F5F5"/>
<path d="M165.375 563.579C153.581 540.787 137.017 509.248 118.598 474.663C100.178 440.077 83.6143 408.671 71.6881 385.879L57.6417 358.846L53.7989 351.558L52.7387 349.703C52.4737 349.305 52.3412 349.04 52.3412 349.04C52.3412 349.04 52.4737 349.305 52.6062 349.703C52.7387 350.1 53.1363 350.763 53.5338 351.69C54.3289 353.413 55.654 355.931 57.2442 359.111C60.4245 365.604 65.195 374.748 71.1581 386.276C82.9517 409.068 99.5159 440.607 117.935 475.193C136.355 509.779 152.919 541.184 164.845 563.976" fill="#E0E0E0"/>
<path d="M109.057 397.142C108.792 397.672 108.659 398.202 108.527 398.732C108.262 399.793 107.864 401.25 107.334 403.105C106.406 406.816 105.081 411.984 103.889 417.814C102.696 423.645 101.636 428.68 100.708 432.523C100.311 434.246 100.046 435.836 99.7807 437.029C99.6482 437.559 99.5157 438.089 99.5157 438.751C99.7807 438.221 99.9132 437.691 100.046 437.161C100.311 436.101 100.708 434.644 101.238 432.788C102.166 429.078 103.359 423.777 104.551 418.079C105.744 412.381 106.936 407.346 107.864 403.37C108.262 401.648 108.527 400.058 108.924 398.865C108.924 398.202 108.924 397.672 109.057 397.142Z" fill="#E0E0E0"/>
<path d="M97.2627 439.149C97.2627 439.016 86.6616 435.969 73.5428 432.523C60.424 429.078 49.6904 426.295 49.6904 426.56C49.6904 426.825 60.2915 429.741 73.4103 433.186C86.5291 436.631 97.1302 439.281 97.2627 439.149Z" fill="#E0E0E0"/>
<path d="M127.875 491.094C127.345 490.962 126.682 490.962 126.152 491.094L121.514 491.227C117.539 491.359 112.106 491.359 106.143 491.227C100.18 491.094 94.7467 490.829 90.7713 490.564L86.1333 490.299C85.6033 490.299 84.9407 490.299 84.4106 490.299C84.9407 490.432 85.4708 490.564 86.1333 490.564C87.1934 490.697 88.7836 490.829 90.7713 491.094C94.7467 491.492 100.18 491.757 106.143 491.889C112.106 492.022 117.671 491.889 121.514 491.624C123.502 491.492 125.092 491.359 126.152 491.227C126.815 491.227 127.345 491.227 127.875 491.094Z" fill="#E0E0E0"/>
<path d="M146.823 455.448C146.426 455.846 146.161 456.243 145.896 456.773L143.775 460.484C141.92 463.664 139.535 468.037 136.752 472.94C133.969 477.843 131.717 482.216 129.994 485.529C129.199 486.986 128.536 488.311 128.006 489.372C127.741 489.769 127.476 490.299 127.344 490.829C127.741 490.432 128.006 490.034 128.271 489.504L130.392 485.794C132.247 482.613 134.632 478.24 137.282 473.337C139.933 468.434 142.318 464.062 144.04 460.749C144.836 459.291 145.498 457.966 146.028 456.906C146.558 456.376 146.691 455.978 146.823 455.448Z" fill="#E0E0E0"/>
<path d="M179.819 497.852C179.422 498.382 179.024 498.912 178.759 499.575C178.097 500.768 177.037 502.358 175.976 504.346C173.591 508.321 170.411 514.019 166.966 520.247C163.52 526.475 160.34 532.173 158.087 536.149C157.027 538.136 156.099 539.727 155.437 541.052C155.039 541.582 154.774 542.244 154.509 542.907C154.907 542.377 155.304 541.847 155.569 541.184L158.485 536.281C160.87 532.306 164.05 526.608 167.496 520.38C170.941 514.152 174.121 508.586 176.374 504.478C177.434 502.49 178.362 500.9 179.024 499.575C179.289 499.045 179.554 498.382 179.819 497.852Z" fill="#E0E0E0"/>
<path d="M154.773 541.582C154.111 541.449 153.316 541.449 152.653 541.449L146.69 541.317C141.655 541.184 134.764 541.184 127.211 540.787C119.657 540.389 112.634 539.992 107.731 539.594L101.768 539.064C101.106 538.931 100.31 538.932 99.6479 538.932C100.31 539.064 101.106 539.197 101.768 539.329C103.093 539.462 105.213 539.727 107.731 539.992C112.767 540.522 119.657 541.052 127.211 541.449C134.764 541.847 141.787 541.847 146.823 541.847C149.34 541.847 151.328 541.714 152.786 541.714C153.316 541.714 154.111 541.714 154.773 541.582Z" fill="#E0E0E0"/>
<path d="M476.914 553.64C447.099 538.534 435.967 504.08 432.522 472.277C431.992 466.977 430.534 461.544 432.39 456.508C434.245 451.473 439.678 447.497 444.713 449.087C448.954 450.413 451.206 454.653 453.989 458.231C457.7 462.869 462.47 466.314 468.036 468.302C471.614 469.627 475.986 470.025 479.034 467.772C483.275 464.591 482.877 458.231 482.082 452.93C480.624 443.124 479.167 433.318 477.709 423.645C476.914 418.344 476.119 413.044 477.047 407.743C477.974 402.443 480.889 397.407 485.792 395.287C490.563 393.167 497.189 395.155 499.044 400.19C499.839 402.31 499.706 404.563 500.104 406.683C500.501 408.803 501.959 411.189 504.079 411.454C506.199 411.719 508.187 409.996 509.512 408.273C514.15 402.178 516.933 394.89 519.318 387.601C521.704 380.313 524.221 372.892 528.197 366.399C532.172 359.906 538.533 354.34 545.953 352.75C553.374 351.16 562.12 354.738 565.035 361.894C567.951 369.049 564.77 377.133 560.927 383.891C555.229 393.829 548.074 402.84 539.725 410.659C538.268 412.116 536.678 413.574 536.28 415.694C535.617 419.404 539.46 422.32 543.038 422.982C547.146 423.777 551.386 422.717 555.494 422.585C559.602 422.452 564.373 423.645 566.493 427.355C569.408 432.391 565.698 438.751 561.855 442.992C554.037 451.605 544.761 458.893 534.557 464.459C530.847 466.447 527.004 468.302 524.221 471.35C521.438 474.397 520.246 479.565 522.631 483.011C525.016 486.456 530.052 486.986 534.027 485.661C538.003 484.336 541.315 481.686 544.893 479.565C551.784 475.855 561.192 474.928 566.625 480.626C570.203 484.336 571.263 490.034 570.468 495.07C569.673 500.105 567.156 504.876 564.373 509.248C554.699 524.487 541.448 537.474 525.546 545.69C509.645 553.905 494.538 557.483 476.914 553.64Z" fill="#F5F5F5"/>
<path d="M479.432 570.072C478.769 557.351 479.829 549.4 482.347 532.703C485.13 514.681 488.973 496.925 493.876 479.3C495.201 474.663 496.393 470.025 497.586 465.519C498.779 461.014 500.104 456.508 501.561 452.135C504.477 443.787 507.657 435.704 511.5 427.753C515.078 420.2 518.656 413.044 522.101 406.418C525.546 399.793 528.859 393.697 532.172 388.264C537.34 379.65 543.038 371.567 549.531 363.881C551.784 361.231 553.639 359.111 554.832 357.786L556.289 356.196C556.422 356.063 556.554 355.798 556.819 355.666C556.687 355.931 556.554 356.063 556.422 356.196L555.097 357.786C553.904 359.243 552.049 361.231 549.929 364.014C543.701 371.7 538.002 379.916 532.967 388.529C529.787 393.962 526.474 400.058 523.028 406.683C519.583 413.309 516.005 420.332 512.56 428.018C508.85 435.969 505.537 444.052 502.754 452.4C501.296 456.773 500.104 461.146 498.779 465.652C497.453 470.157 496.261 474.795 495.068 479.433C490.165 496.925 486.322 514.681 483.54 532.703C481.022 549.267 479.962 557.218 480.492 569.94" fill="#E0E0E0"/>
<path d="M501.826 452.003C501.429 451.34 501.164 450.545 501.031 449.883C500.501 448.425 499.971 446.437 499.176 443.787C497.718 438.619 495.863 431.463 493.875 423.645C491.888 415.827 490.032 408.671 488.442 403.503C487.647 400.985 486.985 398.865 486.587 397.54C486.322 396.877 486.057 396.082 485.925 395.287C486.322 395.95 486.72 396.612 486.852 397.407C487.382 398.732 488.177 400.853 488.972 403.37C490.695 408.406 492.683 415.562 494.67 423.38L499.706 443.654C500.369 446.04 500.766 448.16 501.296 449.75C501.561 450.545 501.694 451.208 501.826 452.003Z" fill="#E0E0E0"/>
<path d="M567.553 429.873C566.625 430.138 565.83 430.403 564.902 430.536C563.18 430.933 560.662 431.463 557.614 432.258C551.519 433.848 543.17 436.234 534.027 439.281C524.883 442.329 516.8 445.51 511.102 448.027C508.187 449.22 505.802 450.28 504.211 450.943C503.416 451.34 502.489 451.738 501.694 452.003C502.489 451.473 503.284 451.075 504.079 450.678C505.669 449.883 507.922 448.69 510.837 447.365C516.535 444.715 524.618 441.534 533.762 438.354C541.58 435.704 549.398 433.318 557.482 431.463C560.53 430.801 563.047 430.271 564.77 430.006C565.698 429.873 566.625 429.873 567.553 429.873Z" fill="#E0E0E0"/>
<path d="M483.011 531.378C483.011 531.378 482.746 531.113 482.481 530.583L481.023 528.33C479.698 526.343 477.975 523.427 475.723 519.717C471.35 512.429 465.652 502.225 459.556 490.829C453.46 479.433 447.762 469.097 443.654 461.809L438.619 453.063L437.294 450.678C437.161 450.413 437.029 450.148 436.896 449.883C436.896 449.883 437.161 450.148 437.426 450.678L438.884 452.93C440.209 454.918 441.932 457.833 444.184 461.544C448.557 468.832 454.255 479.035 460.351 490.432C466.447 501.828 472.145 512.164 476.253 519.452C478.373 523.03 479.963 525.945 481.288 528.198C481.818 529.125 482.216 529.921 482.613 530.583C482.746 530.716 482.878 530.981 483.011 531.378Z" fill="#E0E0E0"/>
<path d="M568.613 489.636C568.348 489.902 568.083 490.034 567.818 490.167L565.3 491.359L556.157 495.865C548.471 499.707 537.738 505.008 525.944 510.971C514.15 516.934 503.417 522.235 495.598 525.813C491.623 527.668 488.575 529.125 486.323 530.053L483.805 531.113C483.54 531.246 483.142 531.378 482.877 531.378C483.142 531.113 483.407 530.981 483.672 530.848L486.19 529.655L495.333 525.15C503.019 521.307 513.753 516.007 525.546 510.044C537.34 504.08 548.074 498.912 555.892 495.202C559.867 493.347 562.915 491.889 565.168 490.962L567.686 489.902C568.083 489.769 568.348 489.636 568.613 489.636Z" fill="#E0E0E0"/>
<path d="M0.000367123 569.144C0.000367123 569.277 127.876 569.542 285.434 569.542C442.992 569.542 571 569.409 571 569.144C571 568.879 443.257 568.747 285.566 568.747C127.876 568.747 0.000367123 569.012 0.000367123 569.144Z" fill="#263238"/>
<path d="M557.616 170.147L455.05 120.719C453.46 119.924 451.605 120.587 450.81 122.177L381.903 265.291C381.108 266.882 381.771 268.737 383.361 269.532L485.926 318.959C487.516 319.754 489.371 319.092 490.166 317.502L559.073 174.387C559.868 172.797 559.206 170.942 557.616 170.147Z" fill="#E0E0E0"/>
<path d="M456.72 125.449L552.963 171.771L486.297 310.284L390.054 263.962L456.72 125.449Z" fill="#FAFAFA"/>
<path d="M484.204 141.392C488.179 138.344 493.479 137.814 497.852 139.934L500.768 134.103C502.888 129.598 508.321 127.743 512.694 129.863C517.199 131.983 519.054 137.416 516.934 141.922L514.019 148.017L516.139 149.077C520.512 151.33 523.295 155.703 523.295 160.606V163.654L481.421 143.512L484.204 141.392ZM506.598 142.319C508.983 143.512 511.899 142.452 513.091 140.066C514.284 137.681 513.224 134.766 510.839 133.573C508.453 132.381 505.538 133.441 504.346 135.826C503.153 138.211 504.213 141.127 506.598 142.319Z" fill="#EBEBEB"/>
<path d="M507.791 174.255C507.659 174.387 513.489 177.435 520.645 180.881C527.801 184.326 533.764 186.976 533.896 186.844C534.029 186.711 528.198 183.663 521.042 180.218C513.887 176.773 507.924 174.122 507.791 174.255Z" fill="#E0E0E0"/>
<path d="M519.188 185.121C521.175 186.446 523.163 187.506 525.283 188.434C527.271 189.494 529.524 190.422 531.776 191.217C529.789 189.891 527.801 188.831 525.681 187.904C523.561 186.711 521.44 185.916 519.188 185.121Z" fill="#E0E0E0"/>
<path d="M452.002 167.894C451.87 168.027 468.169 176.11 488.178 185.651C508.188 195.192 524.619 203.01 524.619 202.878C524.752 202.745 508.453 194.795 488.443 185.121C468.434 175.448 452.002 167.762 452.002 167.894Z" fill="#E0E0E0"/>
<path d="M448.69 174.785C448.557 174.917 464.856 182.868 484.866 192.542C504.875 202.215 521.307 209.901 521.307 209.768C521.439 209.636 505.14 201.685 485.131 192.012C465.121 182.338 448.69 174.652 448.69 174.785Z" fill="#E0E0E0"/>
<path d="M445.378 181.808C445.245 181.941 461.544 189.892 481.554 199.565C501.563 209.238 517.995 216.924 517.995 216.792C517.995 216.659 501.828 208.708 481.819 199.035C461.677 189.361 445.378 181.676 445.378 181.808Z" fill="#E0E0E0"/>
<path d="M441.933 188.699C441.8 188.831 458.099 196.782 478.109 206.456C498.118 216.129 514.55 223.815 514.55 223.682C514.55 223.55 498.516 215.599 478.374 205.926C458.364 196.252 442.065 188.566 441.933 188.699Z" fill="#E0E0E0"/>
<path d="M438.62 195.589C438.488 195.722 454.787 203.673 474.796 213.346C494.806 223.02 511.237 230.705 511.237 230.573C511.237 230.44 495.071 222.49 475.061 212.816C455.052 203.143 438.753 195.457 438.62 195.589Z" fill="#E0E0E0"/>
<path d="M435.307 202.613C435.174 202.745 451.473 210.696 471.483 220.37C491.492 230.043 507.924 237.729 507.924 237.596C507.924 237.464 491.757 229.513 471.748 219.839C451.738 210.166 435.439 202.348 435.307 202.613Z" fill="#E0E0E0"/>
<path d="M468.567 226.333C468.965 226.598 469.362 226.863 469.892 227.128L473.735 229.115C477.048 230.706 481.553 232.958 486.456 235.343C491.492 237.729 495.997 239.849 499.31 241.439L503.286 243.162C503.816 243.427 504.213 243.559 504.743 243.692C504.346 243.427 503.948 243.162 503.418 242.897L499.575 240.909C496.262 239.319 491.757 237.066 486.721 234.681C481.686 232.296 477.18 230.175 473.868 228.585L469.892 226.863C469.627 226.598 469.23 226.465 468.567 226.333Z" fill="#E0E0E0"/>
<path d="M457.037 149.077C458.892 150.27 460.747 151.33 462.735 152.258C464.59 153.318 466.578 154.113 468.698 154.776C466.976 153.583 464.988 152.523 463 151.728C461.277 150.535 459.157 149.74 457.037 149.077Z" fill="#E0E0E0"/>
<path d="M477.843 249.39C480.891 251.245 483.939 252.835 487.119 254.293C490.167 255.883 493.48 257.341 496.66 258.533C493.612 256.678 490.565 255.088 487.384 253.63C484.336 251.908 481.156 250.583 477.843 249.39Z" fill="#E0E0E0"/>
<path d="M474.265 255.353C477.313 257.208 480.493 258.798 483.674 260.256C486.854 261.846 490.034 263.304 493.479 264.629C490.432 262.774 487.251 261.184 484.071 259.726C480.758 258.003 477.578 256.546 474.265 255.353Z" fill="#E0E0E0"/>
<path d="M423.645 222.092C424.97 223.152 426.427 223.947 428.018 224.61C429.475 225.405 431.065 226.068 432.788 226.465C429.873 224.61 426.825 223.152 423.645 222.092Z" fill="#E0E0E0"/>
<path d="M420.598 227.525C421.923 228.585 423.381 229.38 424.971 230.043C426.428 230.838 428.019 231.501 429.741 231.898C428.416 230.838 426.958 230.043 425.368 229.38C423.778 228.585 422.188 227.923 420.598 227.525Z" fill="#E0E0E0"/>
<path d="M479.829 266.219C481.154 267.279 482.612 268.074 484.07 268.604C485.527 269.399 486.985 270.062 488.575 270.459C487.25 269.399 485.792 268.604 484.335 268.074C483.01 267.279 481.419 266.617 479.829 266.219Z" fill="#E0E0E0"/>
<path d="M417.018 234.018C419.006 235.476 421.258 236.536 423.644 237.199C421.656 235.741 419.536 234.681 417.018 234.018Z" fill="#E0E0E0"/>
<path d="M482.084 285.566C482.084 285.566 481.951 285.434 481.686 285.301L480.626 284.506L476.386 281.723L461.014 272.05L460.749 271.917L460.617 272.315C459.954 274.17 459.822 276.29 460.484 278.145C461.677 281.856 465.52 284.108 469.363 282.916C470.025 282.651 470.688 282.386 471.35 281.988C473.338 280.531 474.133 277.88 473.471 275.495C473.206 274.567 472.808 273.772 472.145 273.11C472.013 272.977 471.88 272.712 471.615 272.58C471.483 272.447 471.218 272.315 471.085 272.182C470.82 272.05 470.423 272.05 470.158 272.182C469.893 272.315 469.76 272.58 469.628 272.845C468.833 274.302 468.435 276.025 468.303 277.748C468.17 279.338 468.435 281.061 469.098 282.518C469.628 284.108 470.555 285.434 471.88 286.361C473.206 287.156 475.061 287.156 476.386 286.229C477.579 285.434 478.506 284.241 479.036 282.916C479.699 280.398 479.699 277.88 479.036 275.495L478.904 274.965L478.506 275.363C477.048 276.953 476.253 278.94 475.988 281.061C475.856 282.651 475.988 284.241 476.386 285.831C476.651 286.759 477.181 287.686 477.711 288.481C477.844 288.746 477.976 288.879 478.241 289.011C478.374 289.144 478.374 289.144 478.374 289.144C477.579 288.084 477.048 286.891 476.651 285.566C476.253 284.108 476.121 282.518 476.386 281.061C476.651 279.073 477.579 277.085 478.904 275.628L478.506 275.495C479.036 277.88 479.036 280.398 478.506 282.651C478.109 283.843 477.181 284.903 476.121 285.699C474.928 286.494 473.471 286.494 472.278 285.831C471.085 285.036 470.158 283.711 469.76 282.386C468.7 279.338 468.833 276.025 470.29 273.242C470.423 273.11 470.423 272.977 470.555 272.977C470.688 272.977 470.82 272.977 470.82 272.977C471.085 273.11 471.483 273.375 471.615 273.64C472.145 274.302 472.543 274.965 472.676 275.76C473.206 277.88 472.543 280.133 470.82 281.458C467.905 283.446 463.797 282.651 461.809 279.735C461.412 279.205 461.147 278.675 461.014 278.013C460.484 276.29 460.484 274.302 461.147 272.58L460.749 272.712L476.253 282.253L480.626 284.903L481.819 285.566C481.819 285.566 481.951 285.566 482.084 285.566Z" fill="#E0E0E0"/>
<path d="M413.308 252.173C413.308 252.57 413.44 252.968 413.573 253.365C413.705 253.895 413.97 254.293 414.235 254.823C414.633 255.486 415.163 255.883 415.958 256.016C416.356 256.148 416.886 256.148 417.283 256.016C417.681 255.883 418.078 255.486 418.343 255.22C418.873 254.425 419.404 253.63 419.801 252.703C420.861 250.848 421.921 248.86 423.114 246.74L422.584 246.607C422.716 249.655 422.849 252.968 422.981 256.413C422.981 257.208 423.114 258.003 423.114 258.931V260.256L423.644 259.063C425.499 255.353 427.089 251.908 428.679 248.86H428.149C428.944 251.908 429.342 254.955 429.342 258.136C429.342 260.388 429.209 261.714 429.342 261.714C429.475 261.449 429.475 261.051 429.475 260.786C429.607 259.858 429.607 259.063 429.74 258.136C429.872 254.955 429.475 251.775 428.679 248.727L428.547 247.932L428.149 248.595C426.692 251.643 424.969 255.088 423.114 258.798L423.776 258.931C423.776 258.136 423.644 257.341 423.644 256.413C423.511 252.968 423.379 249.655 423.246 246.607V245.414L422.716 246.475C421.524 248.595 420.464 250.715 419.536 252.57C419.138 253.365 418.741 254.293 418.211 255.088C417.813 255.751 417.018 256.016 416.356 255.883C415.296 255.486 414.501 254.558 414.235 253.498C413.705 252.968 413.44 252.57 413.308 252.173Z" fill="#E0E0E0"/>
<path d="M413.308 247.27C413.176 247.402 418.609 251.378 425.5 256.016C432.39 260.654 437.956 264.364 438.088 264.099C438.221 263.834 432.788 259.991 425.897 255.353C419.007 250.715 413.441 247.137 413.308 247.27Z" fill="#E0E0E0"/>
<path d="M406.684 248.33C409.467 251.245 412.515 253.895 415.695 256.413C418.743 259.196 421.791 261.714 425.104 264.099C422.321 261.184 419.273 258.533 416.093 256.015C413.045 253.233 409.997 250.715 406.684 248.33Z" fill="#E0E0E0"/>
<path d="M362.426 398.997C362.426 398.997 400.06 424.572 402.18 484.336C402.842 504.345 393.036 568.217 393.036 568.217L172.667 569.144L213.878 398.07L283.183 382.168L362.426 398.997Z" fill="#89AAD5"/>
<path d="M278.281 443.389L308.229 568.614L233.226 569.144L278.281 443.389Z" fill="#263238"/>
<path d="M279.338 416.224C279.073 417.549 278.941 419.007 278.941 420.332C278.808 423.115 278.543 426.428 278.278 430.271C278.013 434.113 277.881 437.691 277.881 440.209C277.748 441.534 277.881 442.992 278.013 444.317C278.278 442.992 278.411 441.534 278.411 440.209C278.543 437.426 278.808 434.113 279.073 430.271C279.338 426.428 279.471 422.85 279.471 420.332C279.471 419.007 279.471 417.682 279.338 416.224Z" fill="#263238"/>
<path d="M265.823 430.138C265.823 430.138 266.353 430.271 267.148 430.801C268.208 431.463 269.135 432.391 269.665 433.583C270.461 435.306 270.461 437.294 269.4 438.884C267.81 441.534 264.365 442.462 261.715 440.872C260.39 440.077 259.329 438.751 259.064 437.161C258.534 435.306 259.064 433.451 260.39 432.126C261.317 431.198 262.377 430.536 263.702 430.271C264.63 430.138 265.028 430.138 265.16 430.006C265.293 429.873 265.028 430.006 264.762 429.873C264.365 429.873 264.1 429.873 263.702 429.873C262.377 430.006 261.052 430.668 260.125 431.728C259.462 432.391 258.932 433.186 258.667 434.113C258.269 435.174 258.269 436.234 258.534 437.294C259.197 440.607 262.51 442.859 265.955 442.197C267.678 441.799 269.268 440.739 270.063 439.149C270.593 438.221 270.991 437.161 270.858 435.969C270.858 435.041 270.593 434.113 270.196 433.318C269.533 432.126 268.605 431.066 267.413 430.536C267.148 430.403 266.75 430.271 266.353 430.138C265.955 430.138 265.823 430.006 265.823 430.138Z" fill="#263238"/>
<path d="M241.707 498.515C241.707 498.515 242.237 498.647 243.032 499.177C244.092 499.84 245.02 500.768 245.55 501.96C246.345 503.683 246.345 505.671 245.285 507.261C243.695 509.911 240.249 510.839 237.599 509.248C236.274 508.453 235.214 507.128 234.949 505.538C234.419 503.683 234.949 501.828 236.274 500.503C237.202 499.575 238.262 498.912 239.454 498.647C240.382 498.515 240.912 498.515 240.912 498.382C240.779 498.382 240.647 498.25 240.514 498.25C240.117 498.25 239.852 498.25 239.454 498.25C238.129 498.382 236.804 499.045 235.876 500.105C235.214 500.768 234.684 501.563 234.419 502.49C234.021 503.55 234.021 504.61 234.286 505.671C234.949 508.983 238.262 511.236 241.575 510.574C243.297 510.176 244.887 509.116 245.815 507.526C246.345 506.598 246.743 505.538 246.61 504.345C246.61 503.418 246.345 502.49 245.947 501.695C245.285 500.503 244.357 499.442 243.165 498.912C242.9 498.78 242.502 498.647 242.105 498.515C241.972 498.515 241.84 498.515 241.707 498.515Z" fill="#263238"/>
<path d="M319.624 448.822C319.757 449.087 319.889 449.22 320.154 449.352C320.419 449.75 320.949 450.28 321.612 450.943C323.467 452.798 325.455 454.653 327.575 456.243C334.598 461.544 342.549 465.386 351.162 467.374C355.8 468.567 360.703 468.832 365.606 468.567C369.582 468.302 373.425 466.844 376.605 464.591C378.725 463.001 380.58 460.881 381.64 458.496C381.906 457.833 382.171 457.171 382.303 456.508C382.436 456.243 382.436 455.978 382.436 455.713C382.303 455.713 382.171 456.773 381.375 458.363C380.183 460.748 378.46 462.736 376.207 464.194C373.027 466.447 369.317 467.639 365.341 468.037C360.571 468.302 355.8 467.904 351.162 466.844C342.682 464.856 334.731 461.279 327.708 455.978C325.587 454.388 323.6 452.665 321.612 450.943L320.022 449.485C319.889 448.955 319.757 448.822 319.624 448.822Z" fill="#263238"/>
<path d="M319.624 461.279C319.757 461.544 319.889 461.676 320.154 461.809C320.419 462.206 320.949 462.736 321.612 463.399C329.695 471.615 339.899 477.313 351.162 479.83C355.8 481.023 360.703 481.421 365.606 481.023C369.582 480.758 373.425 479.3 376.605 477.048C378.725 475.458 380.58 473.337 381.64 470.952C381.906 470.289 382.171 469.627 382.303 468.964C382.436 468.699 382.436 468.434 382.436 468.169C382.303 468.169 382.171 469.229 381.375 470.82C380.183 473.205 378.46 475.192 376.207 476.65C373.027 478.903 369.317 480.095 365.341 480.36C360.571 480.626 355.8 480.228 351.162 479.168C342.682 477.18 334.731 473.602 327.708 468.434C325.587 466.844 323.6 465.121 321.612 463.399L320.022 461.941C320.022 461.544 319.889 461.411 319.624 461.279Z" fill="#263238"/>
<path d="M317.769 457.436C317.769 457.568 317.636 457.833 317.636 457.966C317.636 458.363 317.504 458.893 317.504 459.556C317.371 461.014 317.106 463.001 316.841 465.651C316.311 470.952 315.251 478.505 314.721 488.046C314.456 493.214 314.589 498.382 315.119 503.55C315.649 509.513 316.974 515.344 319.094 520.91C321.347 527.138 325.057 532.703 329.828 537.474C332.345 539.859 335.128 541.979 338.308 543.702C341.489 545.424 344.934 546.617 348.512 547.28C355.668 548.472 362.956 547.147 369.184 543.437C375.015 540.124 379.918 535.486 383.363 529.788C386.543 524.62 388.663 519.054 389.989 513.224C391.181 508.188 391.711 503.02 391.844 497.72C391.844 490.166 391.314 482.746 390.254 475.325C389.856 472.675 389.591 470.687 389.326 469.229C389.193 468.567 389.193 468.037 389.061 467.639C389.061 467.507 389.061 467.242 388.928 467.109C388.928 467.242 388.928 467.507 388.928 467.639C388.928 468.037 389.061 468.567 389.061 469.229C389.193 470.687 389.459 472.675 389.856 475.325C390.784 482.746 391.314 490.299 391.181 497.72C391.049 502.888 390.386 508.056 389.326 513.091C388.001 518.922 385.748 524.355 382.7 529.39C379.255 534.956 374.485 539.594 368.786 542.774C362.691 546.352 355.535 547.677 348.644 546.485C345.199 545.822 341.754 544.629 338.706 543.039C335.658 541.317 332.875 539.329 330.358 536.944C325.72 532.438 322.009 526.873 319.757 520.645C317.636 515.079 316.311 509.248 315.781 503.418C315.251 498.25 315.119 493.082 315.384 487.914C315.781 478.505 316.709 470.82 317.239 465.519C317.504 462.869 317.636 460.881 317.769 459.423C317.769 458.761 317.901 458.231 317.901 457.833C317.901 457.436 317.769 457.436 317.769 457.436Z" fill="#263238"/>
<g opacity="0.2">
<path opacity="0.2" d="M386.675 523.162C384.29 531.246 383.229 533.366 378.857 539.726C374.749 545.822 368.653 550.46 361.762 552.713C351.559 556.291 340.295 554.17 331.947 547.412C323.864 540.654 320.948 530.186 319.623 523.03C323.201 527.8 326.911 534.558 331.284 538.401C335.657 542.244 341.62 545.69 347.451 546.75C355.402 548.075 364.81 545.69 371.701 541.317C378.592 536.944 382.434 529.39 386.675 523.162Z" fill="black"/>
</g>
<g opacity="0.2">
<path opacity="0.2" d="M380.976 471.747C377.928 478.638 371.7 483.541 364.279 484.866C357.123 486.191 347.847 483.938 343.342 477.18C359.111 482.613 374.88 482.746 380.976 471.747Z" fill="black"/>
</g>
<path d="M251.378 452.135C251.776 452.135 252.041 452.135 252.438 452.135C253.366 452.003 254.161 451.87 255.088 451.605C261.052 449.882 266.087 446.04 269.4 440.739C269.93 439.944 270.327 439.149 270.725 438.354C270.99 437.691 271.123 437.426 270.99 437.426C270.857 437.426 270.327 438.619 269.002 440.607C267.28 442.992 265.159 445.244 262.907 447.1C260.521 448.955 257.871 450.28 255.088 451.34C252.836 451.738 251.378 452.003 251.378 452.135Z" fill="#263238"/>
<g opacity="0.2">
<path opacity="0.2" d="M269.799 438.221C268.209 443.787 261.981 448.955 256.548 450.81C255.487 451.208 254.295 451.34 253.235 451.34C252.042 451.208 250.982 450.677 250.319 449.75C249.127 448.027 250.187 445.509 251.91 444.184C253.765 443.124 255.752 442.329 257.873 442.064C262.113 441.137 265.956 443.257 269.401 439.679" fill="black"/>
</g>
<g opacity="0.2">
<path opacity="0.2" d="M386.939 428.018C377.001 436.631 363.087 437.029 350.498 433.318C337.91 429.608 326.911 422.585 316.31 415.031C327.971 417.417 337.91 422.717 349.703 424.44C360.967 426.162 372.628 426.295 383.627 422.452" fill="black"/>
</g>
<path d="M197.312 560.664C197.445 560.664 197.445 560.796 197.577 560.796C197.842 560.929 198.107 561.061 198.372 561.194C199.432 561.591 200.493 561.856 201.553 561.989C205.661 562.386 209.768 561.194 213.081 558.941C217.454 556.158 221.43 551.388 225.803 546.22C230.44 540.522 234.548 534.426 238.126 528.065C244.752 516.404 249.787 504.08 253.1 491.094C254.425 486.191 255.22 482.083 255.751 479.301C256.016 477.975 256.148 476.783 256.281 475.988C256.281 475.59 256.413 475.193 256.413 474.795C256.281 475.193 256.148 475.59 256.148 475.855L255.485 479.035C254.955 481.818 254.028 485.926 252.703 490.829C249.257 503.683 244.089 516.007 237.596 527.535C234.018 533.896 229.91 539.992 225.405 545.69C221.165 550.858 217.189 555.628 212.949 558.411C209.636 560.796 205.661 561.856 201.553 561.724C200.095 561.591 198.77 561.194 197.312 560.664Z" fill="#263238"/>
<g opacity="0.2">
<path opacity="0.2" d="M245.018 511.766C245.018 511.766 225.406 536.414 211.227 542.377C206.456 544.364 201.023 546.087 197.71 550.195C195.988 552.05 195.325 554.568 195.723 557.086C195.723 557.351 195.855 557.616 195.988 557.881C197.975 563.181 207.914 562.386 212.419 559.073C214.407 557.616 213.214 558.543 214.805 557.351C219.31 554.038 243.825 525.68 245.018 511.766Z" fill="black"/>
</g>
<path d="M331.416 179.821L318.827 177.303L257.208 178.098L225.803 184.989L213.876 360.171L352.485 366.664L331.416 179.821Z" fill="#E0E0E0"/>
<path d="M241.573 352.088L238.658 272.447L243.561 180.086C224.081 185.121 197.313 190.687 182.604 207.516C173.063 218.514 163.655 232.428 160.077 254.956C155.969 281.458 150.669 332.211 147.223 360.436" fill="#89AAD5"/>
<path d="M221.961 338.969L317.9 354.605L321.346 295.372L326.646 178.363C354.474 179.555 386.145 202.48 395.686 220.369C402.311 232.826 407.877 247.27 409.6 261.184C412.912 287.686 418.611 333.138 421.923 361.496C424.044 378.988 418.08 396.48 405.889 409.068C391.975 423.38 370.243 428.415 350.631 424.307L204.602 383.228L221.961 338.969Z" fill="#89AAD5"/>
<path d="M232.032 337.909C232.032 337.776 232.032 337.644 232.032 337.511C231.899 337.246 231.899 336.981 231.767 336.584C231.502 335.656 231.104 334.464 230.574 332.873C229.514 329.561 228.056 324.923 226.201 319.092L211.095 272.182L210.962 272.58L226.466 266.087L227.129 265.822L226.599 265.424L223.021 263.039L211.227 255.353L211.36 255.751C217.323 235.079 222.623 216.792 226.334 203.673C228.189 197.18 229.647 191.879 230.707 188.301C231.237 186.446 231.502 185.121 231.899 184.193C232.032 183.796 232.164 183.398 232.164 183.133C232.164 183.001 232.297 182.868 232.297 182.736C232.297 182.736 232.297 182.868 232.164 183.133L231.767 184.193C231.502 185.121 230.972 186.579 230.442 188.301L225.804 203.673L210.565 255.751V256.016L210.83 256.148L222.491 263.834L226.069 266.219V265.557L210.565 272.05L210.3 272.182L210.432 272.447C216.528 291.264 221.828 307.563 225.671 319.357C227.659 325.188 229.117 329.826 230.177 333.006C230.707 334.596 231.104 335.789 231.369 336.716C231.502 337.114 231.634 337.379 231.767 337.644C231.899 337.776 232.032 337.909 232.032 337.909Z" fill="#263238"/>
<g opacity="0.2">
<path opacity="0.2" d="M210.831 256.148C211.626 259.064 213.348 261.581 215.601 263.436C217.456 264.497 216.396 265.822 214.938 267.279C213.083 269.002 210.168 269.532 208.843 271.652C207.518 273.772 208.313 276.158 208.975 278.41C215.601 299.48 223.684 320.152 233.093 340.162L210.831 272.315L226.335 265.954L210.831 256.148Z" fill="black"/>
</g>
<path d="M325.851 339.631C325.851 339.499 325.984 339.499 325.984 339.366C326.116 339.101 326.249 338.836 326.381 338.571L327.839 335.391C329.031 332.476 330.887 328.368 333.139 323.332L351.029 281.458L351.161 281.193L350.896 281.061L338.572 272.315V272.845L346.656 266.352L350.234 263.569L351.956 262.244L352.354 261.846C352.486 261.846 352.486 261.714 352.619 261.581C352.751 261.449 352.751 261.316 352.751 261.184C352.884 260.786 352.884 260.389 352.884 259.991C352.751 257.076 352.486 254.028 352.089 251.113C351.294 245.415 350.366 239.849 349.438 234.681C347.583 224.212 345.728 214.804 344.138 206.853C342.548 198.902 341.223 192.542 340.295 188.169C339.765 186.049 339.5 184.326 339.102 183.133L338.837 181.808C338.837 181.676 338.705 181.543 338.705 181.411C338.705 181.543 338.705 181.676 338.837 181.941C338.837 182.338 338.97 182.736 339.102 183.266C339.367 184.458 339.632 186.181 340.163 188.301C341.09 192.807 342.283 199.167 343.873 206.986C345.463 214.804 347.186 224.345 349.041 234.813C349.969 239.982 350.896 245.547 351.691 251.245C352.089 254.16 352.354 257.076 352.486 259.991C352.486 260.389 352.486 260.654 352.354 261.051C352.354 261.184 351.956 261.449 351.691 261.714L349.969 263.171L346.391 265.954L338.307 272.447L337.91 272.712L338.307 272.977L350.631 281.723L350.499 281.326L332.742 323.332C330.622 328.5 328.899 332.608 327.706 335.524C327.176 336.849 326.646 338.041 326.381 338.836L326.116 339.631C325.851 339.366 325.851 339.499 325.851 339.631Z" fill="#263238"/>
<path d="M306.505 267.147L209.902 281.988C208.18 282.253 206.987 283.843 207.252 285.566L228.057 420.597C228.322 422.32 229.912 423.512 231.635 423.247L328.237 408.406C329.959 408.141 331.152 406.551 330.887 404.828L310.082 269.797C309.817 268.074 308.227 266.882 306.505 267.147Z" fill="#89AAD5"/>
<g opacity="0.2">
<path opacity="0.2" d="M306.505 267.147L209.903 281.988C208.181 282.253 206.988 283.843 207.253 285.566L228.058 420.597C228.323 422.32 229.913 423.512 231.635 423.247L328.238 408.406C329.96 408.141 331.153 406.551 330.888 404.828L310.083 269.797C309.818 268.074 308.228 266.882 306.505 267.147Z" fill="black"/>
</g>
<path d="M304.325 270.604L324.635 402.222L233.223 416.327L212.913 284.71L304.325 270.604Z" fill="#EBEBEB"/>
<path d="M240.381 282.518C241.706 278.41 245.151 275.495 249.524 274.832L248.729 269.134C248.066 264.894 250.982 260.919 255.222 260.256C259.463 259.593 263.438 262.509 264.101 266.749L265.028 272.58L267.016 272.315C271.256 271.785 275.364 273.507 277.749 276.953L279.207 279.073L239.453 285.168L240.381 282.518ZM256.812 272.315C259.065 271.917 260.655 269.797 260.258 267.544C259.86 265.291 257.74 263.701 255.487 264.099C253.234 264.496 251.644 266.617 252.042 268.869C252.439 270.99 254.56 272.58 256.812 272.315Z" fill="#263238"/>
<path d="M273.375 294.444C277.616 294.179 281.724 293.649 285.832 292.854C289.939 292.324 294.047 291.529 298.155 290.602C294.047 290.867 289.807 291.397 285.699 292.192C281.591 292.722 277.483 293.517 273.375 294.444Z" fill="#263238"/>
<path d="M286.893 296.697C288.881 296.697 291.001 296.565 292.989 296.167C294.977 296.035 296.964 295.505 298.952 294.842C296.964 294.842 294.844 294.974 292.857 295.372C290.736 295.637 288.749 296.035 286.893 296.697Z" fill="#263238"/>
<path d="M230.441 317.369C230.441 317.502 245.945 315.382 265.027 312.334C284.109 309.286 299.48 306.901 299.48 306.636C299.48 306.371 283.976 308.623 264.895 311.671C245.813 314.719 230.441 317.104 230.441 317.369Z" fill="#263238"/>
<path d="M231.502 323.862C231.502 323.995 247.006 321.875 266.088 318.827C285.169 315.779 300.541 313.394 300.541 313.129C300.541 312.864 285.037 315.117 265.955 318.164C246.873 321.212 231.369 323.73 231.502 323.862Z" fill="#263238"/>
<path d="M232.428 330.488C232.428 330.621 247.932 328.5 267.014 325.453C286.096 322.405 301.468 320.02 301.468 319.755C301.468 319.49 285.964 321.742 266.882 324.79C247.8 327.838 232.428 330.356 232.428 330.488Z" fill="#263238"/>
<path d="M233.49 337.114C233.49 337.246 248.994 335.126 268.076 332.078C287.158 329.03 302.529 326.645 302.529 326.38C302.529 326.115 287.025 328.368 267.943 331.416C248.861 334.464 233.357 336.849 233.49 337.114Z" fill="#263238"/>
<path d="M234.55 343.607C234.55 343.739 250.054 341.619 269.136 338.571C288.218 335.524 303.59 333.138 303.59 332.873C303.59 332.608 288.086 334.861 269.004 337.909C249.922 340.957 234.418 343.474 234.55 343.607Z" fill="#263238"/>
<path d="M235.477 350.233C235.477 350.365 250.981 348.245 270.063 345.197C289.145 342.149 304.517 339.764 304.517 339.499C304.517 339.234 289.013 341.487 269.931 344.535C250.849 347.582 235.477 350.1 235.477 350.233Z" fill="#263238"/>
<path d="M270.99 350.895C271.387 350.895 271.918 350.895 272.315 350.763C273.243 350.63 274.435 350.497 276.025 350.232C279.206 349.835 283.446 349.172 288.217 348.51C292.987 347.847 297.228 347.052 300.408 346.522C301.998 346.257 303.191 345.992 304.118 345.859C304.516 345.859 305.046 345.727 305.443 345.462C305.046 345.462 304.516 345.462 304.118 345.594C303.191 345.727 301.998 345.86 300.408 346.125C297.228 346.522 292.987 347.185 288.217 347.847C283.446 348.51 279.206 349.305 276.025 349.835C274.435 350.1 273.243 350.365 272.315 350.497C271.785 350.497 271.387 350.63 270.99 350.895Z" fill="#263238"/>
<path d="M224.875 301.335C226.731 301.335 228.586 301.203 230.441 300.805C232.296 300.673 234.151 300.275 235.874 299.612C232.164 299.745 228.453 300.407 224.875 301.335Z" fill="#263238"/>
<path d="M288.879 362.821C291.927 362.689 294.975 362.291 297.89 361.761C300.938 361.364 303.853 360.834 306.769 360.038C303.721 360.171 300.673 360.568 297.758 361.099C294.71 361.364 291.795 361.894 288.879 362.821Z" fill="#263238"/>
<path d="M289.145 368.784C292.192 368.652 295.24 368.254 298.288 367.724C301.336 367.327 304.384 366.797 307.299 366.002C304.251 366.134 301.203 366.532 298.155 367.062C295.108 367.459 292.06 367.989 289.145 368.784Z" fill="#263238"/>
<path d="M236.671 369.845C239.586 369.845 242.501 369.447 245.284 368.519C243.827 368.387 242.369 368.519 240.911 368.784C239.586 368.917 238.128 369.314 236.671 369.845Z" fill="#263238"/>
<path d="M237.199 375.277C240.114 375.277 243.03 374.88 245.812 373.952C243.03 373.952 240.114 374.482 237.199 375.277Z" fill="#263238"/>
<path d="M298.42 373.82C299.878 373.952 301.336 373.82 302.661 373.555C304.118 373.422 305.443 373.157 306.769 372.495C305.311 372.362 303.986 372.495 302.528 372.76C301.203 372.892 299.745 373.29 298.42 373.82Z" fill="#263238"/>
<path d="M237.863 381.638C238.923 381.771 239.983 381.771 241.043 381.506C242.103 381.506 243.163 381.108 244.091 380.711C243.031 380.578 241.971 380.578 240.91 380.843C239.983 380.843 238.923 381.108 237.863 381.638Z" fill="#263238"/>
<path d="M309.553 386.541C309.023 386.541 308.493 386.541 307.963 386.541L303.59 386.674L287.821 387.336H287.423L287.556 387.734C287.953 389.456 288.881 390.914 290.338 391.974C291.796 393.167 293.784 393.564 295.639 393.167C297.627 392.769 299.217 391.312 300.012 389.324C300.674 387.204 300.012 384.951 298.422 383.626C297.892 383.096 297.096 382.698 296.301 382.566C296.169 382.566 295.904 382.433 295.771 382.433C295.506 382.433 295.374 382.433 295.109 382.433C294.844 382.433 294.579 382.698 294.446 382.963C294.314 383.228 294.314 383.493 294.314 383.626C294.446 385.083 294.976 386.541 295.771 387.866C296.566 389.059 297.494 390.119 298.687 390.914C299.879 391.709 301.204 392.239 302.662 392.239C304.12 392.107 305.312 391.312 305.842 389.986C306.372 388.794 306.505 387.469 306.107 386.276C305.312 384.288 303.987 382.433 302.397 380.976L301.999 380.578V381.108C301.734 382.963 302.132 384.818 303.06 386.409C303.722 387.601 304.65 388.661 305.71 389.589C306.372 390.119 307.167 390.516 307.963 390.781C308.228 390.914 308.493 390.914 308.89 391.047C307.83 390.649 306.77 390.119 305.842 389.324C304.782 388.529 303.987 387.469 303.325 386.276C302.53 384.686 302.265 382.963 302.53 381.241L302.132 381.373C303.722 382.831 304.915 384.553 305.577 386.541C305.842 387.601 305.71 388.794 305.312 389.854C304.915 390.914 303.855 391.709 302.662 391.709C301.337 391.709 300.144 391.312 299.217 390.516C296.964 388.926 295.506 386.409 295.109 383.758C295.109 383.626 295.109 383.493 295.109 383.361C295.109 383.361 295.109 383.228 295.241 383.228C295.506 383.228 295.904 383.228 296.169 383.361C296.831 383.493 297.494 383.891 298.024 384.288C299.482 385.481 300.012 387.469 299.482 389.324C298.422 392.107 295.109 393.564 292.326 392.504C291.796 392.239 291.266 391.974 290.868 391.709C289.543 390.782 288.748 389.324 288.351 387.866L288.086 388.264L303.722 387.336L308.095 387.071C308.493 386.674 309.023 386.674 309.553 386.541Z" fill="#263238"/>
<path d="M244.09 396.48C244.355 396.745 244.62 397.01 244.885 397.275C245.283 397.54 245.548 397.805 246.078 397.937C246.608 398.202 247.271 398.202 247.933 398.07C248.331 397.937 248.596 397.672 248.861 397.407C249.126 397.01 249.258 396.612 249.258 396.215C249.258 395.42 249.126 394.492 249.126 393.697C248.993 391.842 248.728 389.854 248.596 387.734L248.066 387.999L253.101 394.889L254.426 396.612L255.221 397.672L255.089 396.347C254.559 392.769 254.029 389.456 253.631 386.541L253.101 386.806C255.221 388.529 256.944 390.517 258.534 392.769C259.594 394.359 260.124 395.42 260.257 395.287C260.257 395.022 260.124 394.757 259.992 394.492C259.594 393.829 259.329 393.167 258.799 392.504C257.342 390.119 255.619 388.131 253.499 386.276L252.836 385.746L252.969 386.541C253.366 389.456 253.896 392.769 254.294 396.347L254.956 396.082L253.631 394.359C251.776 391.974 250.186 389.589 248.463 387.601L247.801 386.674L247.933 387.866C248.198 389.986 248.463 391.974 248.596 393.829C248.728 394.624 248.861 395.42 248.861 396.347C248.861 397.01 248.463 397.672 247.933 397.805C247.006 398.07 245.945 397.805 245.283 397.142C244.62 396.877 244.355 396.612 244.09 396.48Z" fill="#263238"/>
<path d="M241.704 392.902C246.077 393.167 250.318 393.299 254.69 393.167C259.063 393.299 263.304 393.167 267.677 392.769C263.304 392.504 259.063 392.372 254.69 392.504C250.45 392.372 246.077 392.504 241.704 392.902Z" fill="#263238"/>
<path d="M237.464 397.01C240.909 397.672 244.355 398.202 247.8 398.467C251.245 398.997 254.691 399.262 258.269 399.262C254.823 398.467 251.378 398.07 247.933 397.805C244.487 397.275 241.042 397.01 237.464 397.01Z" fill="#263238"/>
<g opacity="0.2">
<path opacity="0.2" d="M352.752 260.521C352.885 264.496 351.825 268.604 348.512 270.857C352.62 272.845 354.872 277.748 355.005 282.253C355.137 286.759 353.547 291.397 351.825 295.637C346.392 308.756 334.995 327.308 326.25 338.571C326.25 338.571 330.623 326.645 331.948 323.862C337.646 311.274 342.814 298.685 348.512 286.096C349.174 284.771 350.234 280.928 350.234 280.928C349.572 280.663 349.042 280.266 348.512 279.736C345.331 277.085 338.308 272.447 338.308 272.447C338.308 272.447 352.752 260.919 352.752 260.521Z" fill="black"/>
</g>
<path d="M353.018 287.554C352.885 287.554 353.15 302.793 353.813 321.742C354.475 340.692 355.005 355.931 355.27 355.931C355.536 355.931 355.138 340.692 354.475 321.742C353.813 302.793 353.15 287.554 353.018 287.554Z" fill="#263238"/>
<path d="M330.093 247.402H331.418C331.418 246.872 329.563 196.782 327.973 176.773C327.84 173.99 326.647 171.34 324.527 169.352C320.419 165.774 314.191 166.304 313.926 166.304L314.059 167.629C314.191 167.629 320.022 167.232 323.732 170.412C325.587 172.002 326.647 174.387 326.78 176.905C328.238 196.782 330.093 246.872 330.093 247.402Z" fill="#263238"/>
<path d="M317.769 331.283H320.154V328.633H317.769C312.601 328.633 308.493 324.525 308.493 319.357V291.264H305.843V319.357C305.843 325.85 311.143 331.283 317.769 331.283Z" fill="#455A64"/>
<path d="M316.839 330.223C316.972 331.813 318.429 332.873 319.887 332.741C321.477 332.608 322.537 331.151 322.405 329.693C322.272 328.103 320.815 327.043 319.357 327.175C317.767 327.308 316.574 328.633 316.839 330.223Z" fill="#263238"/>
<path d="M340.692 331.151H343.078C349.703 331.151 355.004 325.85 355.004 319.224L354.871 291.132H352.221L352.354 319.224C352.354 324.392 348.246 328.5 343.078 328.5H340.692V331.151Z" fill="#455A64"/>
<path d="M344.005 330.223C343.872 331.813 342.414 332.873 340.957 332.741C339.367 332.608 338.307 331.151 338.439 329.693C338.572 328.103 340.029 327.043 341.487 327.175C342.944 327.175 344.137 328.633 344.005 330.223C344.005 330.091 344.005 330.091 344.005 330.223Z" fill="#263238"/>
<path d="M355.668 294.444L356.066 274.435C356.331 259.196 345.2 246.607 331.153 246.342C324.262 246.342 317.769 249.125 313.131 254.16C308.228 259.461 305.578 266.352 305.446 273.507L305.048 293.517H309.023L309.421 273.507C309.421 267.279 311.806 261.316 316.047 256.811C319.89 252.57 325.455 250.185 331.153 250.185C342.947 250.318 352.355 261.184 352.09 274.17L351.693 294.179L355.668 294.444Z" fill="#263238"/>
<path d="M242.367 248.197C242.367 247.667 248.462 195.589 250.185 178.893L250.318 177.568C250.848 171.87 251.51 165.509 257.738 163.786L257.341 162.461C250.185 164.449 249.522 171.605 248.86 177.435L248.727 178.628C247.005 195.324 240.909 247.402 240.909 247.932L242.367 248.197Z" fill="#263238"/>
<path d="M231.706 249.194C226.169 243.656 226.169 234.679 231.706 229.142C237.244 223.605 246.221 223.605 251.758 229.142C257.295 234.679 257.295 243.656 251.758 249.194C246.221 254.731 237.244 254.731 231.706 249.194Z" fill="#263238"/>
<path d="M234.815 239.186C234.815 243.029 237.863 246.077 241.706 246.077C245.549 246.077 248.597 243.029 248.597 239.186C248.597 235.344 245.549 232.296 241.706 232.296C237.996 232.296 234.815 235.344 234.815 239.186Z" fill="#455A64"/>
<path d="M325.851 339.632L343.74 383.493L201.288 422.982C188.17 426.693 173.991 424.175 162.727 416.357C147.886 405.888 144.175 387.469 146.03 369.315L148.548 349.968L325.851 339.632Z" fill="#89AAD5"/>
<path d="M174.918 387.204C175.051 387.204 175.316 384.156 176.906 379.518C177.303 378.193 177.701 377 178.231 375.808C178.761 374.483 179.423 373.157 180.086 371.7C181.676 368.652 183.664 365.737 185.784 363.086C188.037 360.436 190.422 357.918 193.205 355.798C194.53 354.871 195.723 353.81 196.915 353.148C197.975 352.353 199.168 351.69 200.228 351.028C204.469 348.642 207.384 347.715 207.384 347.582C206.721 347.715 206.059 347.98 205.396 348.245C204.601 348.51 203.806 348.775 203.011 349.173C202.083 349.57 201.023 349.968 199.963 350.63C198.77 351.293 197.578 351.955 196.518 352.618C195.325 353.413 194 354.341 192.807 355.268C190.025 357.521 187.507 359.906 185.254 362.689C183.001 365.472 181.146 368.387 179.556 371.567C178.893 373.025 178.231 374.35 177.701 375.808C177.171 377 176.773 378.325 176.376 379.651C175.978 380.711 175.713 381.771 175.581 382.831C175.316 383.626 175.183 384.554 175.183 385.349C175.051 385.879 174.918 386.541 174.918 387.204Z" fill="#263238"/>
<g opacity="0.2">
<path opacity="0.2" d="M346.788 358.316C357.655 359.243 366.003 360.171 377.266 361.629C384.29 362.424 391.578 362.026 393.831 355.268C396.083 348.51 394.626 340.957 390.915 334.994C387.205 329.03 381.242 315.117 349.571 325.718L346.788 358.316Z" fill="black"/>
</g>
<path d="M332.213 356.328L332.08 356.063L331.815 355.135L330.623 351.823L326.117 339.499L325.985 339.366H325.852L277.485 343.739L230.575 348.245L216.396 349.702L212.553 350.1L211.493 350.232C211.361 350.232 211.228 350.232 211.096 350.232H211.493H212.553L216.396 349.967L230.575 348.775L277.485 344.534L325.852 339.896L325.587 339.764L330.358 352.088L331.683 355.401L332.08 356.196C332.08 356.328 332.213 356.328 332.213 356.328Z" fill="#263238"/>
<g opacity="0.2">
<path opacity="0.2" d="M273.641 401.648C253.366 407.081 241.175 403.9 222.756 393.829C219.045 391.577 215.335 389.191 211.889 386.541C209.239 384.421 206.986 381.903 204.999 379.253C228.719 388.264 248.331 395.154 272.713 401.913" fill="black"/>
</g>
<path d="M332.078 355.931L327.441 342.944L338.174 326.115C340.029 323.2 343.077 321.08 346.522 320.417L386.011 312.996C387.071 316.044 385.614 319.357 382.699 320.815C377.531 323.73 354.208 329.163 354.208 329.163L390.119 328.5C390.119 328.5 391.179 333.668 387.204 335.523C383.229 337.379 357.521 338.306 357.521 338.306L390.252 342.944C390.252 342.944 390.384 348.112 382.964 348.245C375.543 348.112 368.255 347.715 360.966 346.92C360.304 346.787 359.774 347.317 359.641 347.847C359.509 348.51 359.906 349.04 360.569 349.172L382.301 354.34C383.891 354.738 384.819 356.196 384.554 357.786C384.289 358.846 383.626 359.641 382.566 359.906C382.168 360.038 381.771 360.038 381.373 360.038C377.663 359.641 355.533 356.858 355.533 356.858L354.341 359.508L332.078 355.931Z" fill="#DA9177"/>
<path d="M348.378 351.955C348.643 351.293 349.041 350.63 349.571 349.967C350.101 349.305 350.896 348.907 351.691 348.642C352.619 348.377 353.679 348.245 354.739 348.245C356.992 348.377 358.979 349.04 360.437 349.172C361.232 349.305 362.027 349.305 362.822 349.172C362.027 348.907 361.232 348.775 360.437 348.642C358.582 348.112 356.594 347.715 354.739 347.45C353.679 347.317 352.486 347.45 351.426 347.847C350.631 348.245 349.836 348.775 349.173 349.437C348.643 350.1 348.246 351.028 348.378 351.955Z" fill="#AA6550"/>
<path d="M344.801 342.017C344.933 342.017 344.933 341.619 345.198 341.089C345.596 340.294 346.258 339.632 347.053 339.234C349.041 338.041 352.486 338.439 355.932 338.704C359.377 338.969 362.69 339.499 365.075 339.764C366.268 340.029 367.593 340.162 368.918 340.162C367.725 339.764 366.4 339.499 365.208 339.367C362.16 338.836 359.112 338.306 356.064 338.041C354.342 337.909 352.619 337.776 350.896 337.909C349.439 337.909 347.981 338.174 346.788 338.969C345.993 339.499 345.331 340.162 344.933 341.089C344.801 341.354 344.801 341.619 344.801 342.017Z" fill="#AA6550"/>
<path d="M342.018 336.319C342.018 335.259 342.283 334.198 342.813 333.271C343.343 332.343 344.27 331.548 345.198 330.886C346.391 330.223 347.848 329.825 349.173 329.693C352.089 329.428 354.871 329.693 356.992 329.56C358.052 329.56 359.244 329.295 360.172 328.765C360.172 328.633 358.979 329.03 356.992 329.03C355.004 329.03 352.221 328.633 349.173 329.03C347.716 329.163 346.258 329.56 344.933 330.356C343.873 331.018 343.078 331.946 342.415 333.006C342.018 333.668 341.753 334.596 341.885 335.391C341.885 336.054 342.018 336.319 342.018 336.319Z" fill="#AA6550"/>
<path d="M213.745 336.319C213.745 335.656 213.613 334.861 213.613 334.198C213.48 332.873 213.083 330.886 212.685 328.368C211.757 323.465 210.167 316.839 208.445 309.418C206.987 303.19 205.794 296.83 204.999 290.469C204.867 289.276 204.734 288.084 204.734 287.156C204.734 286.229 204.602 285.301 204.602 284.638C204.602 283.976 204.602 283.181 204.469 282.518C204.337 283.181 204.337 283.976 204.337 284.638C204.337 285.301 204.337 286.229 204.337 287.156C204.337 288.084 204.469 289.276 204.602 290.469C205.264 296.962 206.324 303.323 207.915 309.551C209.637 316.972 211.36 323.597 212.42 328.368C212.95 330.753 213.348 332.741 213.613 334.066C213.348 334.861 213.48 335.656 213.745 336.319Z" fill="#263238"/>
<path d="M199.964 423.247C200.229 423.247 200.494 423.247 200.759 423.115L203.012 422.585L211.095 420.597C217.854 418.874 227.262 416.357 237.598 413.574C247.934 410.659 257.21 408.008 263.836 405.888L271.787 403.37L273.907 402.708C274.172 402.575 274.304 402.575 274.569 402.443C274.304 402.443 274.039 402.575 273.774 402.575L271.654 403.105L263.703 405.358L237.333 412.779L210.963 420.067L203.012 422.187L200.892 422.85C200.494 422.982 200.229 423.115 199.964 423.247Z" fill="#263238"/>
<path d="M336.319 38.8265C333.404 29.8156 318.43 21.7323 310.347 16.9618C298.023 9.9386 286.759 11.2637 279.736 17.6244C267.147 7.02331 250.451 -3.18021 234.417 1.06021C218.383 5.30063 205.529 21.5998 208.444 37.8989C210.167 47.4398 216.792 56.0532 216.395 65.7267C216.13 72.3523 212.552 78.3154 209.769 84.411C206.986 90.5067 204.866 97.3973 207.251 103.625C209.637 109.324 215.335 112.901 218.515 118.202C221.033 122.575 221.695 127.743 223.286 132.513C229.249 150.138 250.053 160.076 268.473 156.896C286.892 153.715 302.131 139.934 310.877 123.502C319.623 107.071 322.405 88.1214 323.466 69.4371" fill="#263238"/>
<path d="M322.805 51.2825L319.094 198.24C317.769 215.069 302.265 227.393 284.243 225.802C266.089 224.212 252.175 209.106 253.235 192.144C254.295 174.255 255.223 155.438 255.223 155.438C255.223 155.438 232.431 150.137 229.648 119.792C228.19 104.288 230.708 78.7128 233.358 58.4382C235.478 41.8741 250.585 30.2129 267.017 32.3331C267.414 32.3331 267.812 32.4656 268.342 32.4656" fill="#DA9177"/>
<path d="M239.982 80.1706C239.849 82.2908 241.307 84.146 243.427 84.2785C245.415 84.5435 247.27 83.2184 247.667 81.2307V81.0982C247.8 78.9779 246.342 77.1228 244.222 76.9902C242.234 76.5927 240.379 78.0504 239.982 80.1706C239.982 80.1706 239.982 80.0381 239.982 80.1706Z" fill="#263238"/>
<path d="M236.141 76.1951C236.538 76.7252 239.586 74.7375 243.826 75.0025C248.067 75.2676 250.849 77.5203 251.38 77.1227C251.645 76.8577 251.247 75.9301 249.922 74.87C248.199 73.5449 246.079 72.7498 243.959 72.6173C241.839 72.4848 239.718 73.0148 237.863 74.2074C236.538 75.135 236.008 75.9301 236.141 76.1951Z" fill="#263238"/>
<path d="M279.736 84.2784C279.603 86.3986 281.061 88.2538 283.181 88.3863C285.169 88.6513 287.024 87.3262 287.421 85.206C287.421 85.206 287.421 85.206 287.421 85.0735C287.554 82.9533 286.096 81.0981 283.976 80.9656C281.988 80.8331 280.133 82.1582 279.736 84.2784Z" fill="#263238"/>
<path d="M276.953 79.6405C277.351 80.1705 280.398 78.1828 284.639 78.4478C288.879 78.7129 291.662 80.9656 292.192 80.568C292.457 80.303 292.06 79.3754 290.734 78.3153C289.012 76.9902 286.891 76.1951 284.771 76.0626C282.651 75.9301 280.531 76.4601 278.676 77.6528C277.085 78.5803 276.688 79.3754 276.953 79.6405Z" fill="#263238"/>
<path d="M259.86 109.456C259.86 109.191 257.342 108.661 253.234 107.866C252.174 107.733 251.247 107.468 251.114 106.673C251.114 105.613 251.379 104.553 252.042 103.625C253.234 101.108 254.427 98.4573 255.752 95.807C260.788 84.5434 264.631 75.4 264.1 75.135C263.57 74.8699 259.198 83.8808 254.029 95.012C252.837 97.7947 251.644 100.445 250.584 102.963C249.789 104.155 249.524 105.613 249.789 107.071C250.054 107.866 250.717 108.396 251.379 108.793C251.909 109.058 252.572 109.058 253.102 109.191C257.21 109.456 259.86 109.721 259.86 109.456Z" fill="#263238"/>
<path d="M255.22 155.305C269.399 156.498 283.578 153.583 296.167 147.222C296.167 147.222 284.771 167.497 254.955 162.726L255.22 155.305Z" fill="#AA6550"/>
<path d="M276.954 63.3413C277.352 64.5339 281.459 64.2689 286.362 65.064C291.265 65.859 295.108 67.5817 295.771 66.5216C296.036 66.1241 295.506 64.9314 293.916 63.7388C291.928 62.2812 289.543 61.2211 287.025 60.8235C284.507 60.426 281.989 60.5585 279.604 61.2211C277.749 61.8836 276.821 62.8112 276.954 63.3413Z" fill="#263238"/>
<path d="M238.524 64.2689C239.187 65.329 242.102 64.5339 245.547 64.6664C248.993 64.7989 251.908 65.7265 252.571 64.7989C252.968 64.4014 252.571 63.3413 251.246 62.4137C247.933 60.0285 243.427 59.8959 239.982 62.0162C238.657 62.9437 238.259 63.8713 238.524 64.2689Z" fill="#263238"/>
<path d="M266.352 117.274C263.039 117.274 261.449 118.202 258.666 119.924C257.871 120.322 257.208 120.985 256.678 121.912C256.281 123.105 256.413 124.43 257.076 125.49C258.401 128.008 261.184 129.333 263.966 129.2C266.749 128.935 269.134 126.815 269.797 124.032C270.327 121.25 268.869 118.334 266.352 117.274Z" fill="#AA6550"/>
<path d="M255.354 124.165C255.354 124.43 256.414 124.96 258.137 124.827C260.39 124.562 262.642 123.9 264.63 122.707C266.618 121.647 268.341 120.057 269.798 118.334C270.858 117.009 271.256 115.817 270.991 115.684C270.461 115.287 267.678 118.202 263.438 120.587C261.715 121.647 259.86 122.442 257.872 123.105C256.414 123.635 255.354 123.767 255.354 124.165Z" fill="#263238"/>
<path d="M275.761 98.1923C275.176 98.1923 274.701 97.7177 274.701 97.1322C274.701 96.5467 275.176 96.0721 275.761 96.0721C276.347 96.0721 276.821 96.5467 276.821 97.1322C276.821 97.7177 276.347 98.1923 275.761 98.1923Z" fill="#AA6550"/>
<path d="M243.56 91.8318C243.56 92.4943 244.091 92.8919 244.621 92.8919C245.283 92.8919 245.681 92.3618 245.681 91.8318C245.681 91.1692 245.151 90.7717 244.621 90.7717C244.091 90.6391 243.56 91.1692 243.56 91.8318Z" fill="#AA6550"/>
<path d="M237.465 94.6144C237.332 95.2769 237.862 95.807 238.392 95.807C239.055 95.9395 239.585 95.4094 239.585 94.8794C239.585 94.7469 239.585 94.7469 239.585 94.6144C239.452 93.9518 238.922 93.5543 238.392 93.6868C237.995 93.6868 237.465 94.0843 237.465 94.6144Z" fill="#AA6550"/>
<path d="M235.609 90.109C235.609 90.7716 236.139 91.1691 236.669 91.1691C237.332 91.1691 237.729 90.639 237.729 90.109C237.729 89.4464 237.199 89.0489 236.669 89.0489C236.139 88.9164 235.609 89.4464 235.609 90.109Z" fill="#AA6550"/>
<path d="M279.737 102.035C279.737 102.698 280.267 103.095 280.797 103.095C281.327 103.095 281.857 102.565 281.857 102.035C281.857 101.373 281.327 100.975 280.797 100.975C280.267 100.975 279.737 101.505 279.737 102.035Z" fill="#AA6550"/>
<path d="M283.845 97.6623C283.845 98.3248 284.375 98.7224 284.905 98.7224C285.567 98.7224 285.965 98.1923 285.965 97.6623C285.965 96.9997 285.435 96.6022 284.905 96.6022C284.375 96.6022 283.845 96.9997 283.845 97.6623Z" fill="#AA6550"/>
<path d="M265.822 84.2784C265.954 82.6882 266.219 81.2306 266.484 79.6404C267.544 75.5325 270.062 71.8222 273.507 69.3044C275.893 67.5817 278.543 66.3891 281.458 65.8591C284.771 65.1965 288.216 65.594 291.397 66.6541C293.119 67.3167 294.71 68.1118 296.167 69.1719C297.757 70.232 299.082 71.5571 300.143 73.1473C305.046 79.773 305.046 88.7839 300.143 95.4095C297.89 98.4573 294.975 100.71 291.397 102.035C288.216 103.228 284.771 103.493 281.458 102.83C278.543 102.3 275.893 101.108 273.507 99.3849C270.062 96.8672 267.677 93.1568 266.484 89.0489C266.219 87.4587 265.954 85.8686 265.822 84.2784C265.822 84.4109 265.822 84.5434 265.822 84.6759V85.6035C265.822 86.1336 265.822 86.5311 265.954 87.0612C266.087 87.7238 266.087 88.3863 266.352 89.0489C266.749 90.9041 267.412 92.6267 268.472 94.2169C273.11 102.3 282.916 105.746 291.662 102.565C293.384 101.903 295.107 101.108 296.565 99.915C298.155 98.7224 299.48 97.3972 300.673 95.8071C305.708 88.9164 305.708 79.6404 300.673 72.7498C299.48 71.1596 298.155 69.8345 296.565 68.6418C295.107 67.4492 293.384 66.6541 291.662 65.9916C288.349 64.799 284.904 64.5339 281.458 65.1965C276.025 66.2566 271.255 69.5694 268.472 74.3399C267.544 75.9301 266.882 77.6527 266.352 79.5079C266.219 80.1705 266.087 80.8331 265.954 81.4956C265.822 82.0257 265.822 82.4232 265.822 82.9533V83.8809C265.822 84.1459 265.822 84.2784 265.822 84.2784Z" fill="white"/>
<path d="M257.473 78.5803C258.931 78.1827 260.521 78.0502 261.979 78.0502C263.436 78.3152 264.894 78.8453 266.352 79.5079C266.352 79.5079 266.087 78.9778 265.291 78.4478C264.364 77.7852 263.171 77.3877 262.111 77.2551C260.919 77.1226 259.726 77.2551 258.666 77.6527C257.871 78.0502 257.473 78.4478 257.473 78.5803Z" fill="white"/>
<path d="M269.665 28.2254C272.315 52.2103 290.072 73.6774 313.129 80.9657C305.709 91.6992 310.347 111.974 310.214 128.935C310.082 144.705 310.082 149.21 320.285 157.293C328.766 159.281 333.537 136.224 339.897 129.731C346.258 123.237 352.221 115.287 351.691 106.276C351.426 102.035 349.836 98.0599 349.571 93.8195C349.306 89.1815 350.763 84.5435 351.691 80.0381C355.401 59.7636 344.8 37.7664 327.043 27.1653C309.287 16.5642 285.699 17.2268 268.075 28.0929" fill="#263238"/>
<path d="M320.417 126.683C322.67 118.997 326.38 111.709 331.548 105.613L331.151 106.408C336.981 93.2893 352.22 87.3262 365.472 93.0243C378.591 98.8549 384.554 114.094 378.856 127.345C377.133 131.188 374.615 134.633 371.302 137.284C374.35 136.621 377.265 139.139 377.928 142.187C378.458 145.235 377.53 148.415 375.675 150.8C369.447 159.944 355.401 162.329 346.522 155.836C339.499 160.606 329.163 157.823 323.863 151.065C318.562 144.307 317.899 134.898 320.417 126.683Z" fill="#263238"/>
<path d="M348.776 91.6992C349.041 91.4342 349.306 91.1692 349.571 90.9041C350.234 89.9765 350.632 89.0489 350.897 87.9888C351.692 85.2061 351.294 80.9656 349.174 76.3277C347.981 73.8099 346.391 71.5572 344.403 69.5695C342.283 67.3168 339.765 65.1966 337.248 63.4739C334.332 61.4862 331.152 59.896 327.839 58.8359C324.394 57.6433 320.816 56.7157 317.106 55.7881C313.395 54.8605 309.817 53.9329 306.372 52.7403C303.059 51.5477 299.879 50.2226 296.831 48.6324C291.663 45.8496 286.893 42.5368 282.52 38.5614C279.604 35.9111 276.954 32.9958 274.436 29.948C273.509 28.8879 272.979 27.9603 272.449 27.2978C272.184 27.0327 272.051 26.6352 271.786 26.3702C271.919 26.6352 272.184 27.0327 272.316 27.2978C272.714 27.9603 273.376 28.8879 274.171 29.948C276.557 33.1284 279.207 36.1762 282.122 38.8264C286.495 42.8018 291.266 46.2472 296.434 49.1625C299.481 50.7526 302.662 52.2103 305.975 53.4029C309.42 54.5955 312.998 55.5231 316.708 56.4507C320.419 57.3783 323.996 58.3059 327.442 59.4985C330.755 60.5586 333.802 62.1488 336.718 64.0039C339.235 65.7266 341.753 67.7143 343.873 69.967C345.861 71.8222 347.451 74.0749 348.511 76.5927C350.632 81.0982 351.162 85.3386 350.367 87.9888C350.234 89.1815 349.704 90.5066 348.776 91.6992Z" fill="#455A64"/>
<path d="M271.786 26.2377C271.919 26.5027 272.184 26.7677 272.449 27.0328C272.846 27.5628 273.509 28.2254 274.304 29.153C276.689 31.6707 279.207 33.9234 281.99 36.1762C285.965 39.489 290.338 42.1393 295.109 44.127C297.891 45.1871 300.939 45.9821 303.855 46.5122C306.902 47.1748 310.215 47.5723 313.396 48.1024C319.624 48.8974 325.719 50.0901 331.682 51.9452C336.585 53.5354 340.958 56.0532 344.934 59.2335C347.584 61.4862 349.704 64.1365 351.294 67.1843C351.692 67.9794 352.089 68.9069 352.354 69.702C352.487 69.967 352.619 70.3646 352.752 70.6296C352.752 70.3646 352.619 69.967 352.487 69.702C352.222 68.7744 351.824 67.8468 351.427 67.0518C349.969 63.8714 347.716 61.0887 345.066 58.8359C341.091 55.5231 336.585 52.8728 331.682 51.2827C325.719 49.4275 319.491 48.1024 313.263 47.3073C309.95 46.7772 306.77 46.3797 303.722 45.7171C300.807 45.1871 297.891 44.392 294.976 43.4644C290.338 41.4767 285.833 38.9589 281.857 35.7786C279.207 33.6584 276.557 31.4057 274.039 29.0204L272.051 27.0328C272.316 26.6352 272.051 26.5027 271.786 26.2377Z" fill="#455A64"/>
<path d="M238.127 0C238.127 0.132513 240.778 0.265026 244.753 1.32513C245.813 1.59016 246.873 1.9877 247.933 2.38524C249.126 2.78278 250.319 3.31283 251.511 3.84288C256.812 6.49315 261.582 10.2035 265.293 14.8415C266.088 15.9016 266.883 16.9617 267.545 18.0218C268.208 18.9494 268.738 19.877 269.268 20.9371C271.256 24.6475 271.918 27.1652 272.051 27.0327C271.918 26.3701 271.786 25.8401 271.653 25.31C271.521 24.6475 271.256 23.9849 270.991 23.3223C270.593 22.3947 270.328 21.4671 269.798 20.6721C269.268 19.612 268.738 18.6844 268.075 17.6243C267.413 16.5642 266.618 15.504 265.823 14.4439C263.967 12.0587 261.847 9.93849 259.462 8.08331C257.077 6.22812 254.559 4.63796 251.776 3.31283C250.584 2.78278 249.391 2.25273 248.066 1.85519C246.078 1.19262 244.09 0.662566 241.97 0.39754C241.308 0.265027 240.513 0.132513 239.85 0.132513C239.32 0 238.79 0 238.127 0Z" fill="#455A64"/>
<path d="M216.794 114.491C216.794 114.491 216.794 114.359 216.661 114.226L215.999 113.431C215.469 112.769 214.674 111.841 213.614 110.516C212.421 108.926 211.493 107.203 210.963 105.348C210.698 104.155 210.566 102.963 210.698 101.77C210.831 100.445 211.361 99.1199 212.024 98.0598C213.481 95.5421 215.866 93.4219 217.987 90.7716C222.757 84.676 225.937 77.5203 226.997 69.8345C227.395 65.5941 227.528 61.2212 227.263 56.8482C226.998 52.6078 227.395 48.2349 228.455 44.1269C230.575 36.8387 235.876 30.7431 242.767 27.5628C245.682 26.2377 248.73 25.5751 251.777 25.4426C257.608 25.1775 263.306 26.9002 268.077 30.213L268.872 30.7431C269.004 30.8756 269.137 30.8756 269.137 30.8756C267.944 29.683 266.486 28.7554 265.029 27.9603C260.921 25.8401 256.415 24.6475 251.777 24.78C248.597 24.9125 245.417 25.5751 242.502 26.7677C235.346 29.948 229.913 36.0436 227.66 43.5969C226.6 47.8373 226.202 52.2102 226.467 56.4507C226.732 60.6911 226.6 65.064 226.202 69.3045C225.142 76.8577 222.227 84.0134 217.457 89.9765C215.336 92.6268 212.951 94.8795 211.493 97.3973C210.831 98.5899 210.301 99.915 210.168 101.373C210.036 102.565 210.168 103.89 210.566 105.083C211.228 106.938 212.156 108.793 213.349 110.251C214.144 111.179 214.939 112.239 215.734 113.034L216.396 113.696C216.661 114.359 216.661 114.359 216.794 114.491Z" fill="#455A64"/>
<path d="M219.84 79.6404C219.973 78.0502 220.238 76.5926 220.503 75.0024C221.563 70.8945 224.081 67.1842 227.526 64.6664C232.694 60.8235 239.32 59.7634 245.416 62.0161C248.861 63.3413 251.909 65.594 254.161 68.6418C259.064 75.2675 259.064 84.2784 254.161 90.904C253.101 92.4942 251.776 93.8193 250.186 94.8794C248.728 95.9395 247.138 96.8671 245.416 97.3972C235.61 100.975 224.743 95.9395 221.166 86.001C220.901 85.471 220.768 84.9409 220.636 84.2784C220.238 82.8207 219.973 81.2306 219.84 79.6404C219.84 79.7729 219.84 79.9054 219.84 80.0379C219.84 80.303 219.84 80.568 219.84 80.9655C219.84 81.4956 219.84 81.8931 219.973 82.4232C220.105 83.0857 220.105 83.7483 220.371 84.4109C220.768 86.2661 221.431 87.9887 222.491 89.5789C223.683 91.6991 225.406 93.5543 227.394 95.1445C232.562 99.1199 239.585 100.312 245.813 98.0597C247.536 97.3972 249.258 96.6021 250.716 95.4095C252.306 94.2169 253.631 92.8917 254.824 91.3016C259.859 84.4109 259.859 75.1349 254.824 68.2443C253.631 66.6541 252.306 65.329 250.716 64.1364C249.258 62.9437 247.536 62.1487 245.813 61.4861C242.5 60.2935 239.055 60.0284 235.61 60.691C230.176 61.7511 225.406 65.1965 222.623 69.9669C221.696 71.5571 221.033 73.2798 220.503 75.135C220.371 75.7975 220.238 76.4601 220.106 77.1226C219.973 77.6527 219.973 78.0502 219.973 78.5803C219.973 78.9778 219.973 79.2429 219.973 79.5079C219.84 79.5079 219.84 79.5079 219.84 79.6404Z" fill="white"/>
<path d="M320.418 157.823C320.683 157.691 320.815 157.558 321.08 157.426C321.478 157.161 322.141 156.631 322.803 156.101C324.923 154.378 326.911 152.523 328.766 150.535C331.681 147.62 333.669 143.777 334.464 139.802C334.729 137.416 334.862 135.031 334.729 132.646C334.729 130.128 335.392 127.61 336.85 125.49C338.44 123.502 340.162 121.647 342.018 119.925C343.74 118.202 345.198 116.214 346.258 114.094C347.186 112.106 347.848 109.986 348.378 107.866C348.776 106.011 348.908 104.155 348.908 102.168C348.908 100.445 348.511 98.855 348.378 97.5298C348.246 96.3372 348.246 95.1446 348.246 94.0845C348.511 92.2293 348.776 91.1692 348.776 91.1692C348.643 91.4342 348.511 91.6992 348.511 91.9643C348.246 92.6268 348.113 93.4219 347.981 94.217C347.848 95.4096 347.848 96.6022 347.981 97.7949C348.113 99.12 348.378 100.71 348.511 102.433C348.511 106.408 347.583 110.384 345.86 114.094C344.8 116.214 343.343 118.069 341.752 119.792C339.765 121.515 338.042 123.37 336.452 125.49C335.657 126.55 335.127 127.875 334.729 129.2C334.464 130.393 334.199 131.718 334.199 133.043C334.199 135.429 334.199 137.814 333.934 140.199C333.139 144.174 331.284 147.885 328.501 150.8C326.646 152.788 324.791 154.776 322.671 156.498L320.815 157.823C320.683 157.426 320.55 157.691 320.418 157.823Z" fill="#455A64"/>
<path d="M335.393 126.948C335.393 127.08 335.393 127.345 335.393 127.478C335.393 127.875 335.393 128.405 335.525 129.068C335.791 130.923 336.188 132.911 336.851 134.634C341.224 147.09 353.812 154.643 366.931 152.655C368.786 152.39 370.641 151.86 372.497 151.198C373.159 150.933 373.557 150.668 373.954 150.535C374.352 150.403 374.484 150.27 374.484 150.27C372.099 151.198 369.581 151.86 367.064 152.258C364.281 152.655 361.498 152.523 358.715 152.125C351.825 151.065 345.729 147.355 341.621 141.922C339.898 139.669 338.573 137.284 337.513 134.634C336.453 131.983 335.791 129.466 335.393 126.948Z" fill="#455A64"/>
<path d="M340.56 120.72C340.56 121.382 340.692 121.912 340.957 122.575C341.487 124.165 342.017 125.755 342.812 127.345C345.33 132.381 349.305 136.489 354.076 139.404C358.846 142.319 364.412 143.909 369.977 144.042C371.7 144.042 373.29 144.042 375.013 143.777C375.676 143.777 376.206 143.644 376.868 143.379C374.615 143.512 372.363 143.644 369.977 143.512C364.412 143.247 359.111 141.524 354.341 138.741C349.703 135.826 345.728 131.851 343.077 126.948C342.15 124.96 341.355 122.84 340.56 120.72Z" fill="#455A64"/>
<path d="M379.255 107.601C378.857 107.336 378.46 107.071 378.062 106.938C377.532 106.673 377.135 106.408 376.605 106.276C375.942 106.011 375.279 105.746 374.617 105.613C372.894 105.083 371.039 104.685 369.184 104.553C366.931 104.42 364.678 104.42 362.426 104.685C360.173 104.951 357.92 105.613 355.8 106.408C354.077 107.071 352.355 107.866 350.765 108.926C350.102 109.323 349.572 109.721 349.042 110.119C348.644 110.384 348.247 110.781 347.849 111.179C347.452 111.444 347.187 111.841 346.922 112.239C347.054 112.371 348.379 110.914 351.03 109.323C352.62 108.396 354.21 107.601 355.933 106.938C358.053 106.276 360.173 105.746 362.426 105.348C364.678 105.083 366.799 104.951 369.051 105.083C370.907 105.216 372.629 105.481 374.484 106.011C377.532 106.806 379.122 107.601 379.255 107.601Z" fill="#455A64"/>
<path d="M348.777 105.083C348.909 105.216 357.258 98.0598 367.461 89.1814C377.665 80.3031 385.748 73.0148 385.748 72.8823C385.748 72.7498 377.267 79.9055 367.064 88.7839C356.86 97.6623 348.644 104.951 348.777 105.083Z" fill="#89AAD5"/>
<path d="M310.611 90.639C309.949 89.4464 309.021 88.3863 307.829 87.5912C306.768 86.6636 305.576 86.0011 304.251 85.6035C305.178 86.5311 306.238 87.3262 307.431 88.1213C308.491 88.9163 309.551 89.8439 310.611 90.639Z" fill="white"/>
<path d="M347.847 98.0598C347.847 97.9273 347.98 97.9273 347.98 97.7948C348.112 97.5297 348.245 97.2647 348.377 96.9997C348.908 95.9396 349.305 94.747 349.438 93.5543C349.968 89.1814 348.642 84.6759 345.992 81.2306C345.065 80.038 344.137 78.9779 343.077 78.0503C341.884 76.9902 340.559 76.1951 339.234 75.4C336.186 73.8099 332.873 72.6172 329.428 72.0872C322.272 70.6295 314.189 70.8946 305.973 69.7019C301.998 69.1719 298.022 67.9793 294.445 66.1241C291.132 64.2689 288.084 62.0162 285.566 59.2334C281.193 54.4629 277.748 49.0299 275.363 43.1993C273.242 38.1638 271.785 33.9234 270.857 31.0081L269.665 27.6952L269.4 26.7677C269.4 26.6351 269.267 26.6351 269.267 26.5026C269.267 26.5026 269.267 26.6351 269.267 26.7677L269.532 27.6952L270.592 31.1406C271.785 35.2485 273.242 39.3564 274.965 43.3318C277.35 49.2949 280.796 54.8605 285.169 59.6309C287.819 62.4137 290.867 64.799 294.18 66.6541C297.89 68.5093 301.865 69.7019 305.841 70.3645C314.189 71.5571 322.14 71.1596 329.296 72.6172C336.451 74.0749 342.414 76.9902 345.727 81.4956C348.377 84.8085 349.703 89.1814 349.305 93.4218C349.04 95.012 348.51 96.6021 347.847 98.0598Z" fill="#FAFAFA"/>
<path d="M339.369 150.668C339.634 152.523 340.164 154.245 340.959 155.968C341.886 157.956 343.079 159.944 344.404 161.666C346.259 163.919 348.512 165.907 351.162 167.364C354.343 169.087 357.788 170.015 361.366 170.015C365.474 170.147 369.582 168.954 373.027 166.569C376.737 163.919 379.52 160.076 380.713 155.703C381.375 153.318 381.508 150.933 381.11 148.547C380.713 146.03 379.785 143.777 378.327 141.657C376.075 138.211 372.497 135.694 368.521 134.633V135.296C372.629 134.633 376.472 133.043 379.918 130.658C383.098 128.405 385.483 125.49 387.206 121.912C388.663 118.732 389.194 115.419 388.928 111.974C388.663 109.058 387.736 106.143 386.013 103.758C384.556 101.77 382.833 100.048 380.713 98.8549C379.122 97.9273 377.4 97.2647 375.677 96.8672C374.617 96.6022 373.424 96.6022 372.364 96.6022L371.569 96.7347C371.437 96.7347 371.437 96.7347 371.304 96.7347C372.762 96.6022 374.352 96.7347 375.81 97.1322C377.532 97.5298 379.122 98.1923 380.713 99.1199C382.7 100.313 384.423 102.035 385.748 104.023C387.338 106.408 388.266 109.191 388.531 112.106C388.796 115.419 388.133 118.732 386.808 121.78C385.218 125.093 382.833 128.008 379.785 130.128C376.472 132.513 372.629 133.971 368.654 134.633L366.931 134.899L368.654 135.296C372.497 136.224 375.942 138.609 378.062 142.054C379.388 144.042 380.315 146.295 380.713 148.68C381.11 150.933 380.978 153.318 380.315 155.571C379.123 159.811 376.472 163.654 372.894 166.172C369.582 168.424 365.606 169.617 361.631 169.484C358.185 169.484 354.74 168.557 351.56 166.967C349.042 165.642 346.789 163.786 344.934 161.534C343.476 159.811 342.284 157.956 341.356 156.101C340.826 154.908 340.296 153.583 339.899 152.258C339.766 151.86 339.634 151.463 339.634 151.198L339.369 150.668Z" fill="#263238"/>
<path d="M347.186 93.2893C347.318 93.2893 347.451 93.1568 347.451 93.1568L348.378 92.6268C349.571 91.9642 350.631 91.1691 351.691 90.374C355.534 87.1937 358.449 83.0858 360.172 78.4478C364.28 67.0517 360.57 54.4629 350.896 47.1747C347.186 44.3919 342.945 42.4042 338.44 41.0791C333.934 39.754 329.429 38.9589 324.659 38.6939C320.153 38.2963 315.913 38.0313 311.805 37.7663C307.962 37.5012 304.119 37.1037 300.276 36.4411C296.963 35.9111 293.65 34.9835 290.603 33.7909C286.097 32.0682 281.857 29.4179 278.411 26.1051C277.484 25.1775 276.689 24.1174 275.894 23.0573L275.231 22.2622C275.231 22.1297 275.099 22.1297 274.966 21.9972C275.894 23.5874 276.954 25.045 278.146 26.3701C281.592 29.8155 285.832 32.5983 290.47 34.3209C293.65 35.5135 296.963 36.4411 300.276 37.1037C304.119 37.7663 307.962 38.1638 311.805 38.4288C319.888 39.0914 329.031 39.0914 338.175 41.8742C342.548 43.0668 346.656 45.187 350.366 47.8373C359.775 54.993 363.485 67.3167 359.642 78.4478C357.919 83.0858 355.137 87.0612 351.426 90.2415C350.366 91.1691 349.306 91.8317 348.246 92.6268L347.318 93.1568C347.451 93.1568 347.318 93.2893 347.186 93.2893Z" fill="#263238"/>
<path d="M199.567 73.8099C199.832 74.2074 200.362 74.3399 200.76 74.4724C202.217 74.4724 203.41 73.6774 203.94 72.3522C204.338 71.4246 204.338 70.3645 203.807 69.4369C203.145 68.3768 202.217 67.5817 201.157 67.1842C198.374 66.2566 195.327 66.6542 193.074 68.5093C191.749 69.4369 190.689 70.8946 190.026 72.3522C189.364 74.0749 189.231 75.9301 189.629 77.6528C190.026 79.5079 191.086 81.2306 192.544 82.5557C194.134 83.8809 196.122 84.676 198.109 84.941C202.482 85.206 206.855 83.6158 209.903 80.303C211.493 78.7129 212.818 76.7252 213.746 74.6049C214.674 72.3522 214.806 69.967 214.409 67.5817C214.011 65.329 213.216 63.0763 212.288 60.8236C211.361 58.7034 210.566 56.5831 209.903 54.4629C208.578 50.4875 207.65 46.2471 207.253 42.0067C206.855 38.1638 207.12 34.3209 207.915 30.6105C208.578 27.2977 209.903 24.2499 211.758 21.3346C214.276 17.2267 217.986 13.7814 222.359 11.6611C223.552 11.1311 224.745 10.7336 226.07 10.336L227.13 10.071C227.262 10.071 227.395 10.071 227.527 9.93848H227.13L226.07 10.071C224.745 10.336 223.552 10.7336 222.227 11.3961C217.721 13.5163 214.011 16.8292 211.361 21.0696C209.506 23.8524 208.18 27.0327 207.385 30.3455C206.59 34.1884 206.325 38.0313 206.59 42.0067C206.988 46.2471 207.915 50.4875 209.241 54.5954C209.903 56.7157 210.698 58.8359 211.626 60.9561C212.553 63.0763 213.216 65.329 213.746 67.5817C214.144 69.8345 213.878 72.0872 213.083 74.2074C212.288 76.3276 211.096 78.1828 209.506 79.773C206.59 82.9533 202.482 84.5434 198.242 84.2784C196.254 84.1459 194.399 83.3508 192.941 82.0257C191.484 80.8331 190.556 79.2429 190.159 77.5202C189.761 75.7976 189.894 74.0749 190.424 72.4847C190.954 71.0271 192.014 69.702 193.206 68.7744C195.327 67.0517 198.242 66.5216 200.892 67.4492C201.952 67.8468 202.747 68.5093 203.41 69.4369C203.94 70.232 204.072 71.1596 203.675 72.0872C203.145 73.2798 201.952 74.0749 200.627 74.2074C200.362 74.2074 199.965 74.0749 199.567 73.8099Z" fill="#263238"/>
<g opacity="0.2">
<path opacity="0.2" d="M208.047 373.687C201.554 371.832 194.928 377.663 188.435 376.205C184.46 375.277 181.412 371.7 179.689 367.989C177.967 364.279 176.907 360.171 175.051 356.461C173.196 352.75 170.016 349.437 165.908 348.775C162.198 348.245 157.692 350.1 154.909 347.45C152.789 345.462 153.054 341.752 154.777 339.366C156.499 336.981 159.282 335.656 161.932 334.331C164.848 332.741 167.896 331.548 171.076 330.753C174.256 329.958 177.702 330.355 180.617 331.813C186.182 334.993 187.243 342.282 188.833 348.51C189.76 352.883 191.615 356.991 194.266 360.569C196.916 364.146 200.759 366.664 205.132 367.592C206.854 367.592 208.445 368.122 210.035 368.784C211.36 369.712 212.023 372.097 210.565 373.025" fill="black"/>
</g>
<path d="M241.573 349.835L217.456 341.354L195.856 307.563C193.736 304.25 190.291 301.865 186.448 301.203L147.621 293.914C146.561 296.962 148.019 300.275 150.934 301.733C156.102 304.648 179.425 310.081 179.425 310.081L143.513 309.419C143.513 309.419 142.453 314.587 146.429 316.442C150.404 318.297 176.112 319.357 176.112 319.357L143.381 323.995C143.381 323.995 143.248 329.163 150.669 329.295C158.09 329.163 165.378 328.765 172.666 327.97C173.329 327.838 173.859 328.368 173.991 328.898C174.124 329.561 173.726 330.091 173.064 330.223L151.332 335.391C149.742 335.789 148.814 337.246 149.079 338.836C149.344 339.897 150.007 340.692 151.067 340.957C151.464 341.089 151.862 341.089 152.259 341.089C155.97 340.692 178.099 337.909 178.099 337.909C178.099 337.909 185.918 365.339 190.953 367.592C195.989 369.845 206.59 370.375 206.59 370.375L229.117 379.253L241.573 349.835Z" fill="#DA9177"/>
<path d="M145.898 309.419C146.561 309.551 147.091 309.551 147.753 309.551L152.921 309.816C157.294 309.949 163.257 310.214 169.883 310.346L179.159 310.611C181.677 310.479 184.195 310.876 186.58 311.671C188.17 312.334 189.495 313.394 190.423 314.852C190.688 315.382 190.953 315.912 191.218 316.574C191.218 316.442 191.218 316.309 191.218 316.044C191.085 315.647 190.953 315.117 190.688 314.719C189.76 313.129 188.435 311.936 186.845 311.274C184.46 310.346 181.809 309.949 179.292 310.081L170.016 309.816C163.39 309.684 157.427 309.551 153.054 309.419H147.886C147.223 309.286 146.561 309.286 145.898 309.419Z" fill="#AA6550"/>
<path d="M145.368 324.127C145.898 324.127 146.56 324.127 147.09 323.995L151.728 323.332C155.704 322.802 161.137 322.007 167.232 321.08C170.28 320.682 173.063 320.152 175.713 319.887C177.966 319.622 180.351 320.019 182.339 321.08C183.664 321.875 184.857 322.935 185.784 324.127C186.447 325.055 186.712 325.585 186.712 325.585C186.712 325.453 186.712 325.32 186.579 325.187C186.447 324.79 186.182 324.392 186.049 323.995C185.254 322.67 184.062 321.477 182.604 320.682C180.484 319.489 178.099 318.959 175.713 319.224C173.063 319.357 170.148 319.887 167.1 320.417C161.137 321.345 155.571 322.14 151.728 322.802L147.09 323.597C146.56 323.73 145.898 323.862 145.368 324.127Z" fill="#AA6550"/>
<path d="M163.656 332.343C164.981 332.211 166.174 331.946 167.499 331.548C169.884 331.018 173.065 330.091 176.642 329.428C177.437 329.296 178.365 329.163 179.16 329.03C179.955 329.03 180.75 329.296 181.413 329.693C182.605 330.356 183.533 331.283 184.328 332.476C184.858 333.536 185.256 334.861 185.521 336.054C185.653 335.656 185.653 335.391 185.653 334.994C185.521 334.066 185.256 333.138 184.858 332.211C184.196 330.886 183.136 329.826 181.81 329.163C181.015 328.765 180.22 328.5 179.293 328.368C178.365 328.368 177.437 328.5 176.642 328.765C173.065 329.561 169.884 330.488 167.499 331.151C166.041 331.416 164.849 331.813 163.656 332.343Z" fill="#AA6550"/>
<path d="M420.864 368.122L348.512 359.243L221.432 338.571L205 379.783C252.705 396.347 301.602 411.189 349.705 424.307C353.68 425.103 357.655 425.368 361.631 425.368C377.665 425.368 417.154 419.007 420.864 368.122Z" fill="#89AAD5"/>
<path d="M204.998 379.783C205.13 379.518 205.263 379.253 205.395 379.12C205.66 378.59 205.925 377.928 206.323 377C207.118 375.012 208.311 372.23 209.636 368.784L221.695 338.836L221.43 338.969L283.181 349.305C297.757 351.823 311.804 353.413 324.392 355.136C330.753 355.931 336.716 356.858 342.414 357.786C345.197 358.183 347.98 358.713 350.497 359.111C353.015 359.508 355.4 360.039 357.918 360.701C365.206 362.954 371.434 367.989 375.145 374.747C376.205 376.603 377 378.458 377.663 380.446C377.928 381.108 378.06 381.638 378.193 382.036C378.193 382.168 378.325 382.433 378.325 382.566C378.193 381.903 378.06 381.108 377.795 380.446C377.133 378.458 376.337 376.47 375.41 374.747C373.82 371.832 371.832 369.182 369.314 366.929C366.001 364.014 362.159 361.761 358.051 360.436C355.665 359.773 353.148 359.243 350.63 358.713C347.98 358.183 345.329 357.786 342.547 357.256C336.981 356.328 330.885 355.401 324.525 354.605C311.804 352.883 297.89 351.293 283.313 348.775L221.562 338.571H221.297L221.164 338.836C216.261 351.293 212.154 361.629 209.371 368.917L206.19 377.265C205.793 378.193 205.528 378.988 205.395 379.385C205.263 379.783 204.998 379.783 204.998 379.783Z" fill="#263238"/>
<path d="M381.772 423.115C381.64 423.115 381.375 423.115 381.242 423.247L379.52 423.645C378.062 423.91 375.809 424.44 373.027 424.837C364.943 425.898 356.727 425.5 348.777 423.645C346.259 423.115 343.609 422.452 340.958 421.657L332.478 419.272L313.926 413.971C300.807 410.128 286.495 405.888 271.389 401.25C246.211 393.432 223.022 385.746 205.132 379.518L205.265 379.915C210.168 367.327 214.276 356.991 217.058 349.835C218.384 346.257 219.576 343.474 220.239 341.487C220.636 340.559 220.901 339.896 221.034 339.366C221.166 338.836 221.299 338.571 221.299 338.571C221.299 338.571 221.166 338.836 220.901 339.234C220.636 339.631 220.371 340.427 219.974 341.354L216.661 349.57L204.602 379.518L204.47 379.783L204.735 379.915C222.757 386.144 245.814 393.829 270.991 401.78C286.098 406.418 300.409 410.791 313.528 414.501L332.213 419.802L340.693 422.187C343.344 422.982 345.994 423.645 348.512 424.175C356.462 425.898 364.811 426.295 372.894 425.102C376.074 424.705 378.99 424.042 381.772 423.115Z" fill="#263238"/>
<path d="M353.812 359.243C354.342 359.376 355.005 359.508 355.668 359.508L360.703 360.039L377.135 361.629L393.566 363.351L398.602 363.881C399.264 364.014 399.794 364.014 400.457 364.014C399.927 363.881 399.264 363.749 398.602 363.616C397.409 363.484 395.819 363.219 393.699 362.954C389.591 362.424 383.76 361.629 377.4 360.966C371.039 360.304 365.209 359.773 360.968 359.508C358.848 359.376 357.125 359.243 355.933 359.243C355.005 359.111 354.342 359.111 353.812 359.243Z" fill="#263238"/>
<path d="M480.362 492.022C484.072 497.322 491.095 495.467 494.408 492.287C497.721 489.106 499.046 484.468 500.371 480.095C503.287 470.024 506.202 459.423 504.082 449.22C503.552 446.04 502.226 443.257 500.106 440.739C497.986 438.354 494.673 437.294 491.625 437.956C488.047 438.884 485.795 442.462 484.205 445.775C479.434 455.713 476.916 466.447 476.916 477.445C476.784 482.481 477.446 487.781 480.362 492.022Z" fill="#89AAD5"/>
<g opacity="0.2">
<path opacity="0.2" d="M480.362 492.022C484.072 497.322 491.095 495.467 494.408 492.287C497.721 489.106 499.046 484.468 500.371 480.095C503.287 470.024 506.202 459.423 504.082 449.22C503.552 446.04 502.226 443.257 500.106 440.739C497.986 438.354 494.673 437.294 491.625 437.956C488.047 438.884 485.795 442.462 484.205 445.775C479.434 455.713 476.916 466.447 476.916 477.445C476.784 482.481 477.446 487.781 480.362 492.022Z" fill="black"/>
</g>
<path d="M494.01 518.524C499.973 515.477 506.997 515.079 513.755 516.139C517.333 516.669 521.043 517.862 523.428 520.512C525.813 523.162 526.344 527.933 523.561 530.186C521.706 531.378 519.585 531.908 517.465 531.776C512.297 531.776 506.467 530.848 502.359 533.896C499.973 535.619 498.383 538.666 495.6 539.594C492.685 540.257 489.637 538.931 488.18 536.281C486.855 533.631 486.59 530.583 487.385 527.8C487.915 523.825 490.432 520.38 494.01 518.524Z" fill="#89AAD5"/>
<path d="M470.292 499.575C474.267 494.804 475.062 487.914 473.207 482.083C471.352 476.253 467.509 471.085 462.871 466.977C457.438 462.206 451.21 458.496 444.319 455.978C441.669 454.918 438.886 454.388 435.971 454.52C433.055 454.653 430.405 456.243 428.947 458.761C426.96 462.471 428.815 466.977 430.935 470.687C434.513 477.18 438.621 483.408 443.126 489.239C446.837 494.009 450.945 498.647 456.51 500.768C462.076 502.888 467.906 502.623 470.822 498.78" fill="#89AAD5"/>
<path d="M480.098 570.999C480.231 570.204 480.363 569.409 480.496 568.614C480.628 566.892 480.893 564.771 481.158 562.121C481.423 558.941 481.953 555.76 482.616 552.58C483.411 548.737 484.604 545.027 486.061 541.317C487.519 537.739 489.374 534.293 491.759 531.113C493.747 528.595 496.132 526.475 499.047 525.15C501.035 524.222 503.023 523.56 505.143 523.295C505.938 523.295 506.733 523.162 507.528 522.897C506.733 522.765 505.938 522.765 505.143 522.897C502.89 523.03 500.77 523.56 498.782 524.62C495.735 526.077 493.217 528.065 491.097 530.715C488.579 533.896 486.591 537.341 485.134 541.051C483.676 544.762 482.483 548.605 481.688 552.448C481.026 555.628 480.628 558.808 480.363 562.121C480.098 564.904 480.098 567.157 480.098 568.614C479.966 569.409 479.966 570.204 480.098 570.999Z" fill="#263238"/>
<path d="M480.493 565.964C480.626 565.567 480.626 565.169 480.626 564.904C480.626 564.109 480.626 563.049 480.626 561.724C480.626 558.941 480.626 555.098 480.758 550.195C481.023 540.389 481.818 526.873 483.409 512.031C484.999 497.19 487.252 483.806 489.239 474.265C489.769 471.88 490.167 469.627 490.564 467.772C490.962 465.917 491.359 464.194 491.624 462.869C491.889 461.544 492.155 460.616 492.42 459.821C492.552 459.423 492.552 459.158 492.685 458.761C492.552 459.026 492.42 459.423 492.287 459.821C492.022 460.616 491.757 461.676 491.359 462.869C490.962 464.061 490.564 465.784 490.034 467.639C489.504 469.494 488.974 471.615 488.444 474.132C485.794 486.589 483.674 499.31 482.349 511.899C480.758 526.74 479.963 540.389 479.963 550.195C479.963 555.098 479.963 559.073 480.096 561.856C480.228 563.181 480.228 564.241 480.361 565.036C480.228 565.169 480.361 565.567 480.493 565.964Z" fill="#263238"/>
<path d="M480.493 539.859C480.626 538.799 480.626 537.606 480.493 536.546C480.361 534.426 480.096 531.378 479.433 527.668C478.771 523.295 477.711 518.922 476.518 514.681C475.06 509.381 473.205 504.345 471.085 499.31C467.242 490.166 461.942 481.686 455.051 474.397C453.858 473.205 452.666 472.012 451.34 470.952C450.81 470.422 450.28 470.024 449.75 469.627L448.293 468.567C447.365 467.904 446.437 467.374 445.51 466.844C445.377 467.109 449.485 469.494 454.653 474.927C461.279 482.216 466.447 490.564 470.29 499.707C472.41 504.61 474.265 509.778 475.723 514.946C476.916 519.187 477.976 523.427 478.771 527.8C479.433 531.511 479.831 534.558 480.096 536.679C480.228 537.739 480.361 538.799 480.493 539.859Z" fill="#263238"/>
<path d="M61.8846 199.565C63.2097 189.096 72.0881 179.29 82.6892 179.29C88.9173 179.29 94.8804 182.603 99.1208 187.109C100.578 188.699 102.036 190.289 103.229 192.012C104.156 190.024 105.216 188.169 106.409 186.314C109.722 181.013 114.89 176.64 120.986 175.448C131.322 173.327 142.055 181.278 145.368 191.217C148.681 201.155 145.898 212.551 140.465 221.562C135.032 230.573 125.491 242.499 107.999 248.33C95.9405 246.74 79.9064 236.139 72.7507 228.32C65.595 220.502 60.5595 210.034 61.8846 199.565Z" fill="#89AAD5"/>
<path d="M65.5952 218.382H65.9927L67.0529 218.249L71.0283 217.852L85.4722 216.527L85.2072 216.394L91.1702 232.031L91.5678 232.958L91.8328 232.031C93.688 224.477 95.6757 215.997 97.7959 206.986L99.7836 198.77L99.121 198.902L110.12 214.009L110.252 214.141H110.385L135.695 211.491L142.85 210.696L144.706 210.431L145.368 210.299C145.103 210.299 144.971 210.299 144.706 210.299L142.85 210.431L135.695 211.094L110.385 213.479L110.65 213.611L99.6511 198.505L99.2536 197.975L99.121 198.637C98.4585 201.288 97.7959 204.07 97.1333 206.853C95.0131 215.864 93.0254 224.345 91.1702 231.898H91.8328L85.7372 216.262V216.129H85.6047L71.1607 217.719L67.1853 218.249L66.1253 218.382H65.5952Z" fill="#FAFAFA"/>
</svg>
