<?xml version="1.0" encoding="utf-8"?>
<!-- Generator: Adobe Illustrator 17.0.0, SVG Export Plug-In . SVG Version: 6.00 Build 0)  -->
<!DOCTYPE svg PUBLIC "-//W3C//DTD SVG 1.1//EN" "http://www.w3.org/Graphics/SVG/1.1/DTD/svg11.dtd">
<svg version="1.1" id="Camada_1" xmlns="http://www.w3.org/2000/svg" xmlns:xlink="http://www.w3.org/1999/xlink" x="0px" y="0px"
	 width="750.215px" height="599.056px" viewBox="0 0 750.215 599.056" enable-background="new 0 0 750.215 599.056"
	 xml:space="preserve">
<rect x="-908.955" y="-228.634" fill="#85A3C9" width="750.215" height="305.738"/>
<path fill="#85A3C9" d="M700.543,299.528c0,47.298-38.343,85.641-85.641,85.641h-479.59c-47.298,0-85.641-38.343-85.641-85.641l0,0
	c0-47.298,38.343-85.641,85.641-85.641h479.59C662.201,213.887,700.543,252.23,700.543,299.528L700.543,299.528z"/>
<g>
	<path fill="#FFFFFF" d="M266.08,343.793c-0.203,1.443-2.114,3.821-6.24,3.821c-3.557,0-6.931-2.216-6.931-7.541
		s3.558-7.54,7.135-7.54c3.882,0,5.854,2.215,6.057,3.598h-2.135c-0.102-0.529-1.179-1.932-3.922-1.932
		c-3.618,0-5.062,2.643-5.062,5.874s1.24,5.874,4.857,5.874c2.988,0,4.045-1.646,4.146-2.154H266.08z"/>
	<path fill="#FFFFFF" d="M276.28,344.748c-0.082,0.549-0.996,2.784-4.208,2.784c-2.845,0-4.694-1.931-4.694-5.264
		c0-3.028,1.809-5.102,4.634-5.102c3.272,0,4.492,2.521,4.492,5.549h-7.338c0.062,1.85,0.895,3.354,3.049,3.354
		c1.688,0,2.236-1.158,2.317-1.626L276.28,344.748z M274.735,341.496c-0.143-2.113-1.199-2.865-2.683-2.865
		c-1.484,0-2.643,1.138-2.825,2.865H274.735z"/>
	<path fill="#FFFFFF" d="M278.677,337.472h1.544v1.159c0.854-1.18,2.094-1.464,3.212-1.464c2.113,0,3.211,1.077,3.211,3.679v6.402
		h-1.646v-6.402c0-1.524-0.508-2.154-2.073-2.154c-1.991,0-2.602,1.036-2.602,2.784v5.772h-1.646V337.472z"/>
	<path fill="#FFFFFF" d="M291.824,337.472h2.764v1.342h-2.764v5.792c0,1.139,0.203,1.383,1.097,1.383
		c1.017,0,1.667-0.163,1.667-0.163v1.423c0,0-1.139,0.162-2.175,0.162c-1.87,0-2.235-0.914-2.235-2.174v-6.423h-1.748v-1.342h1.748
		v-2.967h1.646V337.472z"/>
	<path fill="#FFFFFF" d="M298.082,337.472v1.382c0.772-1.32,2.398-1.768,3.374-1.768v1.748c0,0-0.305-0.062-0.671-0.062
		c-1.626,0-2.602,0.793-2.602,2.968v5.508h-1.646v-9.776H298.082z"/>
	<path fill="#FFFFFF" d="M311.536,342.248c0,2.724-1.443,5.284-4.757,5.284c-3.313,0-4.593-2.561-4.593-5.284
		s1.442-5.081,4.756-5.081C310.255,337.167,311.536,339.524,311.536,342.248z M309.809,342.31c0-2.216-0.793-3.598-2.887-3.598
		s-3.049,1.382-3.049,3.598c0,2.215,0.793,3.8,2.887,3.8C308.853,346.109,309.809,344.524,309.809,342.31z"/>
	<path fill="#FFFFFF" d="M328.22,332.879v14.369h-1.524v-1.321c-0.406,0.63-1.443,1.605-3.374,1.605
		c-3.272,0-4.431-2.337-4.431-5.162c0-4.105,2.337-5.203,4.41-5.203c2.094,0,2.988,1.22,3.293,1.605v-5.894H328.22z M323.586,338.65
		c-1.606,0-2.968,0.874-2.968,3.639c0,2.215,0.793,3.882,2.987,3.882c1.524,0,3.028-0.935,3.028-3.801
		C326.634,339.342,324.906,338.65,323.586,338.65z"/>
	<path fill="#FFFFFF" d="M339.721,342.248c0,2.724-1.443,5.284-4.757,5.284c-3.313,0-4.593-2.561-4.593-5.284
		s1.443-5.081,4.756-5.081S339.721,339.524,339.721,342.248z M337.992,342.31c0-2.216-0.792-3.598-2.886-3.598
		s-3.049,1.382-3.049,3.598c0,2.215,0.793,3.8,2.887,3.8C337.037,346.109,337.992,344.524,337.992,342.31z"/>
	<path fill="#FFFFFF" d="M347.969,332.879h6.057c2.175,0,4.756,0.65,4.756,3.679c0,1.747-1.118,2.886-2.195,3.211
		c0.549,0.163,2.643,0.711,2.643,3.517c0,3.089-2.114,3.963-5.406,3.963h-5.854V332.879z M349.777,334.565v4.451h3.313
		c2.236,0,3.679-0.305,3.679-2.357s-1.971-2.094-2.743-2.094H349.777z M349.777,340.703v4.858h4.045
		c1.687,0,3.435-0.143,3.435-2.419c0-2.357-1.951-2.439-4.167-2.439H349.777z"/>
	<path fill="#FFFFFF" d="M370.119,344.748c-0.082,0.549-0.996,2.784-4.207,2.784c-2.846,0-4.695-1.931-4.695-5.264
		c0-3.028,1.809-5.102,4.634-5.102c3.272,0,4.492,2.521,4.492,5.549h-7.338c0.062,1.85,0.895,3.354,3.049,3.354
		c1.688,0,2.236-1.158,2.317-1.626L370.119,344.748z M368.574,341.496c-0.143-2.113-1.199-2.865-2.683-2.865
		c-1.484,0-2.643,1.138-2.825,2.865H368.574z"/>
	<path fill="#FFFFFF" d="M374.06,337.472v1.24c0.671-1.22,2.033-1.545,2.744-1.545c1.565,0,2.521,0.711,2.765,1.769
		c0.69-1.342,2.215-1.769,3.028-1.769c2.175,0,3.109,1.321,3.109,3.455v6.626h-1.646v-6.402c0-1.301-0.366-2.154-1.91-2.154
		c-1.688,0-2.276,1.077-2.276,2.561v5.996h-1.586v-6.382c0-1.301-0.365-2.175-1.931-2.175c-1.646,0-2.195,1.077-2.195,2.561v5.996
		h-1.646v-9.776H374.06z"/>
	<path fill="#FFFFFF" d="M396.25,340.703v4.858h8.313v1.687h-10.142v-14.369h9.897v1.687h-8.068v4.451h7.012v1.687H396.25z"/>
	<path fill="#FFFFFF" d="M412.568,344.728c0-1.098-0.833-1.321-2.439-1.707c-2.012-0.487-3.902-0.996-3.902-2.987
		c0-1.951,1.646-2.866,3.659-2.866c2.378,0,4.004,1.26,4.126,2.784l-1.748,0.305c-0.041-0.65-0.772-1.728-2.357-1.728
		c-1.261,0-2.054,0.569-2.054,1.301c0,0.915,0.65,1.199,2.744,1.708c1.605,0.386,3.658,0.976,3.658,2.987
		c0,1.972-1.809,3.008-4.247,3.008c-2.379,0-4.004-1.26-4.126-2.784l1.747-0.305c0.041,0.65,0.772,1.728,2.358,1.728
		C411.613,346.171,412.568,345.562,412.568,344.728z"/>
	<path fill="#FFFFFF" d="M418.826,337.472h2.764v1.342h-2.764v5.792c0,1.139,0.203,1.383,1.097,1.383
		c1.017,0,1.667-0.163,1.667-0.163v1.423c0,0-1.139,0.162-2.175,0.162c-1.87,0-2.235-0.914-2.235-2.174v-6.423h-1.748v-1.342h1.748
		v-2.967h1.646V337.472z"/>
	<path fill="#FFFFFF" d="M431.121,344.402c0,1.139,0,1.586,0.69,1.586c0.427,0,0.854-0.122,0.854-0.122v1.382
		c0,0-0.467,0.122-1.036,0.122c-1.26,0-1.931-0.712-1.931-1.667c-0.203,0.528-1.179,1.829-3.15,1.829
		c-2.154,0-3.435-0.833-3.435-2.805c0-2.215,2.053-2.865,3.658-3.19c2.093-0.427,2.743-0.631,2.743-1.708
		c0-0.833-0.792-1.301-2.053-1.301c-1.585,0-2.316,1.077-2.357,1.728l-1.748-0.305c0.122-1.524,1.748-2.784,4.126-2.784
		c2.013,0,3.699,0.711,3.679,2.866L431.121,344.402z M426.568,346.171c1.585,0,2.906-1.036,2.927-2.541l0.02-1.768
		c0,0-0.528,0.609-2.276,0.955c-1.605,0.325-2.438,0.813-2.438,1.91C424.8,345.562,425.349,346.171,426.568,346.171z"/>
	<path fill="#FFFFFF" d="M435.894,337.472v1.382c0.772-1.32,2.398-1.768,3.374-1.768v1.748c0,0-0.305-0.062-0.671-0.062
		c-1.626,0-2.602,0.793-2.602,2.968v5.508h-1.646v-9.776H435.894z"/>
	<path fill="#FFFFFF" d="M455.384,332.879v14.369h-1.524v-1.321c-0.406,0.63-1.443,1.605-3.374,1.605
		c-3.272,0-4.431-2.337-4.431-5.162c0-4.105,2.337-5.203,4.41-5.203c2.094,0,2.988,1.22,3.293,1.605v-5.894H455.384z M450.75,338.65
		c-1.606,0-2.968,0.874-2.968,3.639c0,2.215,0.793,3.882,2.987,3.882c1.524,0,3.028-0.935,3.028-3.801
		C453.798,339.342,452.07,338.65,450.75,338.65z"/>
	<path fill="#FFFFFF" d="M465.686,344.402c0,1.139,0,1.586,0.69,1.586c0.427,0,0.854-0.122,0.854-0.122v1.382
		c0,0-0.467,0.122-1.036,0.122c-1.26,0-1.931-0.712-1.931-1.667c-0.203,0.528-1.179,1.829-3.15,1.829
		c-2.154,0-3.435-0.833-3.435-2.805c0-2.215,2.053-2.865,3.658-3.19c2.093-0.427,2.743-0.631,2.743-1.708
		c0-0.833-0.792-1.301-2.053-1.301c-1.585,0-2.316,1.077-2.357,1.728l-1.748-0.305c0.122-1.524,1.748-2.784,4.126-2.784
		c2.013,0,3.699,0.711,3.679,2.866L465.686,344.402z M461.133,346.171c1.585,0,2.906-1.036,2.927-2.541l0.02-1.768
		c0,0-0.528,0.609-2.276,0.955c-1.605,0.325-2.438,0.813-2.438,1.91C459.364,345.562,459.913,346.171,461.133,346.171z"/>
	<path fill="#FFFFFF" d="M482.733,345.602l4.309-12.723h3.13l0.407,14.369h-1.891l-0.244-12.927h-0.121l-4.472,12.927h-2.378
		l-4.451-12.927H476.9l-0.244,12.927h-1.87l0.407-14.369h3.13l4.288,12.723H482.733z"/>
	<path fill="#FFFFFF" d="M501.978,344.748c-0.082,0.549-0.996,2.784-4.208,2.784c-2.845,0-4.694-1.931-4.694-5.264
		c0-3.028,1.809-5.102,4.634-5.102c3.272,0,4.492,2.521,4.492,5.549h-7.338c0.062,1.85,0.895,3.354,3.049,3.354
		c1.688,0,2.236-1.158,2.317-1.626L501.978,344.748z M500.433,341.496c-0.143-2.113-1.199-2.865-2.683-2.865
		c-1.484,0-2.643,1.138-2.825,2.865H500.433z"/>
	<path fill="#FFFFFF" d="M504.373,337.472h1.544v1.159c0.854-1.18,2.094-1.464,3.212-1.464c2.113,0,3.211,1.077,3.211,3.679v6.402
		h-1.646v-6.402c0-1.524-0.508-2.154-2.073-2.154c-1.991,0-2.602,1.036-2.602,2.784v5.772h-1.646V337.472z"/>
	<path fill="#FFFFFF" d="M517.521,337.472h2.764v1.342h-2.764v5.792c0,1.139,0.203,1.383,1.097,1.383
		c1.017,0,1.667-0.163,1.667-0.163v1.423c0,0-1.139,0.162-2.175,0.162c-1.87,0-2.235-0.914-2.235-2.174v-6.423h-1.748v-1.342h1.748
		v-2.967h1.646V337.472z"/>
	<path fill="#FFFFFF" d="M530.365,344.748c-0.082,0.549-0.996,2.784-4.207,2.784c-2.846,0-4.695-1.931-4.695-5.264
		c0-3.028,1.809-5.102,4.634-5.102c3.272,0,4.492,2.521,4.492,5.549h-7.338c0.062,1.85,0.895,3.354,3.049,3.354
		c1.688,0,2.236-1.158,2.317-1.626L530.365,344.748z M528.82,341.496c-0.143-2.113-1.199-2.865-2.683-2.865
		c-1.484,0-2.643,1.138-2.825,2.865H528.82z"/>
	<path fill="#FFFFFF" d="M548.694,340.703h-8.028v6.545h-1.829v-14.369h1.829v6.138h8.028v-6.138h1.829v14.369h-1.829V340.703z"/>
	<path fill="#FFFFFF" d="M561.86,347.248h-1.545v-1.26c-0.813,1.219-2.134,1.564-3.252,1.564c-2.113,0-3.17-1.077-3.17-3.679v-6.402
		h1.646v6.402c0,1.524,0.468,2.154,2.033,2.154c1.991,0,2.642-1.036,2.642-2.784v-5.772h1.646V347.248z"/>
	<path fill="#FFFFFF" d="M566.188,337.472v1.24c0.671-1.22,2.033-1.545,2.744-1.545c1.565,0,2.521,0.711,2.765,1.769
		c0.69-1.342,2.215-1.769,3.028-1.769c2.175,0,3.109,1.321,3.109,3.455v6.626h-1.646v-6.402c0-1.301-0.365-2.154-1.91-2.154
		c-1.688,0-2.276,1.077-2.276,2.561v5.996h-1.586v-6.382c0-1.301-0.365-2.175-1.931-2.175c-1.646,0-2.195,1.077-2.195,2.561v5.996
		h-1.646v-9.776H566.188z"/>
	<path fill="#FFFFFF" d="M587.952,344.402c0,1.139,0,1.586,0.69,1.586c0.427,0,0.854-0.122,0.854-0.122v1.382
		c0,0-0.467,0.122-1.036,0.122c-1.26,0-1.931-0.712-1.931-1.667c-0.203,0.528-1.179,1.829-3.15,1.829
		c-2.154,0-3.436-0.833-3.436-2.805c0-2.215,2.054-2.865,3.659-3.19c2.093-0.427,2.743-0.631,2.743-1.708
		c0-0.833-0.792-1.301-2.053-1.301c-1.585,0-2.316,1.077-2.357,1.728l-1.748-0.305c0.122-1.524,1.748-2.784,4.126-2.784
		c2.013,0,3.699,0.711,3.679,2.866L587.952,344.402z M583.399,346.171c1.585,0,2.906-1.036,2.927-2.541l0.02-1.768
		c0,0-0.528,0.609-2.276,0.955c-1.605,0.325-2.438,0.813-2.438,1.91C581.631,345.562,582.18,346.171,583.399,346.171z"/>
	<path fill="#FFFFFF" d="M591.182,337.472h1.544v1.159c0.854-1.18,2.094-1.464,3.212-1.464c2.113,0,3.211,1.077,3.211,3.679v6.402
		h-1.646v-6.402c0-1.524-0.508-2.154-2.073-2.154c-1.991,0-2.602,1.036-2.602,2.784v5.772h-1.646V337.472z"/>
	<path fill="#FFFFFF" d="M609.41,344.402c0,1.139,0,1.586,0.69,1.586c0.427,0,0.854-0.122,0.854-0.122v1.382
		c0,0-0.467,0.122-1.036,0.122c-1.26,0-1.931-0.712-1.931-1.667c-0.203,0.528-1.179,1.829-3.15,1.829
		c-2.154,0-3.435-0.833-3.435-2.805c0-2.215,2.053-2.865,3.658-3.19c2.093-0.427,2.743-0.631,2.743-1.708
		c0-0.833-0.792-1.301-2.053-1.301c-1.585,0-2.316,1.077-2.357,1.728l-1.748-0.305c0.122-1.524,1.748-2.784,4.126-2.784
		c2.013,0,3.699,0.711,3.679,2.866L609.41,344.402z M604.857,346.171c1.585,0,2.906-1.036,2.927-2.541l0.02-1.768
		c0,0-0.528,0.609-2.276,0.955c-1.605,0.325-2.438,0.813-2.438,1.91C603.089,345.562,603.638,346.171,604.857,346.171z"/>
</g>
<g>
	<g>
		<path fill="#A2C3E7" d="M138.917,249.176c0,8.614,1.455,17.224,4.333,25.591c0.158,0.461,0.485,0.853,0.909,1.095l13.424,7.672
			h-7.486c-0.711,0-1.37,0.376-1.738,0.982c-0.364,0.614-0.38,1.37-0.045,1.997c13.469,24.988,39.165,40.692,67.395,41.416
			c3.113,4.798,5.881,9.73,8.266,15.045c0.335,0.748,1.075,1.192,1.847,1.192c0.279,0,0.558-0.057,0.829-0.178
			c1.015-0.457,1.471-1.653,1.015-2.672c-6.698-14.936-15.922-26.961-28.825-40.777c-0.162-0.178-0.323-0.352-0.485-0.525
			c-0.881-0.938-1.778-1.892-2.696-2.85c-1.605-1.682-3.201-3.343-4.774-4.944c-0.78-0.796-0.768-2.078,0.028-2.858
			c0.796-0.788,2.082-0.772,2.858,0.028c10.441,10.651,18.804,19.916,25.631,29.544c-3.581-40.171-37.378-71.781-78.466-71.781
			C139.822,247.155,138.917,248.06,138.917,249.176z"/>
	</g>
</g>
<g>
	<path fill="#FFFFFF" d="M254.214,319.019v-62.302h6.431v62.302H254.214z"/>
	<path fill="#FFFFFF" d="M306.667,301.574h-29.141v0.563c0,3.939,1.126,7.121,3.376,9.546c2.251,2.426,5.186,3.638,8.803,3.638
		c2.465,0,4.689-0.663,6.673-1.989c1.982-1.326,3.737-3.329,5.266-6.009l4.782,3.215c-1.849,3.323-4.207,5.829-7.074,7.517
		c-2.867,1.688-6.189,2.532-9.968,2.532c-5.601,0-10.129-1.849-13.586-5.547c-3.456-3.697-5.185-8.547-5.185-14.55
		c0-5.762,1.714-10.478,5.145-14.148c3.43-3.671,7.838-5.507,13.224-5.507c5.439,0,9.747,1.742,12.923,5.226
		s4.763,8.239,4.763,14.269V301.574z M299.915,296.47c-0.215-3.242-1.293-5.741-3.236-7.496c-1.942-1.755-4.602-2.633-7.979-2.633
		c-3.055,0-5.601,0.918-7.637,2.753c-2.037,1.836-3.216,4.295-3.537,7.376H299.915z"/>
	<path fill="#FFFFFF" d="M328.251,321.31l-18.208-39.069h7.074l11.054,25.685l11.094-25.685h7.074L328.251,321.31z"/>
	<path fill="#FFFFFF" d="M385.971,301.574H356.83v0.563c0,3.939,1.126,7.121,3.376,9.546c2.251,2.426,5.186,3.638,8.803,3.638
		c2.465,0,4.689-0.663,6.673-1.989c1.982-1.326,3.737-3.329,5.266-6.009l4.782,3.215c-1.849,3.323-4.207,5.829-7.074,7.517
		c-2.867,1.688-6.189,2.532-9.968,2.532c-5.601,0-10.129-1.849-13.586-5.547c-3.456-3.697-5.185-8.547-5.185-14.55
		c0-5.762,1.714-10.478,5.145-14.148c3.43-3.671,7.838-5.507,13.224-5.507c5.439,0,9.747,1.742,12.923,5.226
		s4.763,8.239,4.763,14.269V301.574z M379.219,296.47c-0.215-3.242-1.293-5.741-3.236-7.496c-1.942-1.755-4.602-2.633-7.979-2.633
		c-3.055,0-5.601,0.918-7.637,2.753c-2.037,1.836-3.216,4.295-3.537,7.376H379.219z"/>
	<path fill="#FFFFFF" d="M446.664,319.019v-21.665c0-3.724-0.75-6.491-2.251-8.3s-3.805-2.713-6.913-2.713
		c-1.688,0-3.25,0.342-4.683,1.024c-1.434,0.684-2.646,1.655-3.638,2.914c-0.724,0.965-1.246,2.091-1.567,3.377
		c-0.322,1.286-0.482,3.403-0.482,6.351v19.012h-6.069v-21.665c0-3.724-0.751-6.491-2.251-8.3c-1.501-1.809-3.806-2.713-6.913-2.713
		c-1.688,0-3.263,0.342-4.724,1.024c-1.461,0.684-2.687,1.655-3.678,2.914c-0.697,0.938-1.199,2.023-1.507,3.256
		c-0.309,1.233-0.463,3.391-0.463,6.472v19.012h-6.069V282.24h6.15v5.668c1.527-2.357,3.349-4.113,5.466-5.266
		c2.117-1.151,4.556-1.729,7.315-1.729c2.975,0,5.507,0.637,7.597,1.909c2.091,1.273,3.671,3.129,4.743,5.567
		c1.581-2.519,3.45-4.395,5.607-5.627c2.156-1.232,4.655-1.85,7.496-1.85c4.1,0,7.302,1.152,9.606,3.457s3.457,5.507,3.457,9.606
		v25.041H446.664z"/>
	<path fill="#FFFFFF" d="M498.112,301.574h-29.141v0.563c0,3.939,1.126,7.121,3.376,9.546c2.251,2.426,5.186,3.638,8.803,3.638
		c2.465,0,4.689-0.663,6.673-1.989c1.982-1.326,3.737-3.329,5.266-6.009l4.782,3.215c-1.849,3.323-4.207,5.829-7.074,7.517
		c-2.867,1.688-6.189,2.532-9.968,2.532c-5.601,0-10.129-1.849-13.586-5.547c-3.456-3.697-5.185-8.547-5.185-14.55
		c0-5.762,1.714-10.478,5.145-14.148c3.43-3.671,7.838-5.507,13.224-5.507c5.439,0,9.747,1.742,12.923,5.226
		s4.763,8.239,4.763,14.269V301.574z M491.36,296.47c-0.215-3.242-1.293-5.741-3.236-7.496c-1.942-1.755-4.602-2.633-7.979-2.633
		c-3.055,0-5.601,0.918-7.637,2.753c-2.037,1.836-3.216,4.295-3.537,7.376H491.36z"/>
	<path fill="#FFFFFF" d="M507.599,319.019V282.24h6.15v5.668c1.58-2.357,3.482-4.113,5.707-5.266
		c2.225-1.151,4.797-1.729,7.718-1.729c4.341,0,7.73,1.152,10.169,3.457s3.658,5.507,3.658,9.606v25.041h-6.432v-21.665
		c0-3.724-0.783-6.491-2.352-8.3c-1.567-1.809-3.985-2.713-7.255-2.713c-1.876,0-3.584,0.342-5.125,1.024
		c-1.541,0.684-2.82,1.655-3.838,2.914c-0.777,0.965-1.334,2.064-1.668,3.296c-0.336,1.233-0.503,3.377-0.503,6.432v19.012H507.599z
		"/>
	<path fill="#FFFFFF" d="M554.425,287.426h-6.752v-5.186h6.752v-14.831h6.432v14.831h6.752v5.186h-6.752v31.593h-6.432V287.426z"/>
	<path fill="#FFFFFF" d="M607.603,301.574h-29.141v0.563c0,3.939,1.126,7.121,3.376,9.546c2.251,2.426,5.186,3.638,8.803,3.638
		c2.465,0,4.689-0.663,6.673-1.989c1.982-1.326,3.737-3.329,5.266-6.009l4.782,3.215c-1.849,3.323-4.207,5.829-7.074,7.517
		c-2.867,1.688-6.189,2.532-9.968,2.532c-5.601,0-10.129-1.849-13.586-5.547c-3.456-3.697-5.185-8.547-5.185-14.55
		c0-5.762,1.714-10.478,5.145-14.148c3.43-3.671,7.838-5.507,13.224-5.507c5.439,0,9.747,1.742,12.923,5.226
		s4.763,8.239,4.763,14.269V301.574z M600.851,296.47c-0.215-3.242-1.293-5.741-3.236-7.496c-1.942-1.755-4.602-2.633-7.979-2.633
		c-3.055,0-5.601,0.918-7.637,2.753c-2.037,1.836-3.216,4.295-3.537,7.376H600.851z"/>
</g>
<path fill="#FFFFFF" d="M-322.406,412.022c0,47.298-38.343,85.641-85.641,85.641h-479.59c-47.298,0-85.641-38.343-85.641-85.641l0,0
	c0-47.298,38.343-85.641,85.641-85.641h479.59C-360.748,326.381-322.406,364.724-322.406,412.022L-322.406,412.022z"/>
<text transform="matrix(1 0 0 1 -771.076 459.7422)" fill="#85A3C9" font-family="'AnalogueReduced-Regular'" font-size="20.3206">Centro do Bem Estar da Mente Humana</text>
<g>
	<g>
		<path fill="#85A3C9" d="M-884.032,361.67c0,8.614,1.455,17.224,4.333,25.591c0.158,0.461,0.485,0.853,0.909,1.095l13.424,7.672
			h-7.486c-0.711,0-1.37,0.376-1.738,0.982c-0.364,0.614-0.38,1.37-0.044,1.997c13.469,24.989,39.165,40.692,67.395,41.416
			c3.112,4.798,5.881,9.73,8.266,15.045c0.335,0.748,1.075,1.192,1.847,1.192c0.279,0,0.558-0.057,0.829-0.178
			c1.015-0.457,1.471-1.653,1.015-2.672c-6.698-14.936-15.922-26.961-28.825-40.777c-0.162-0.178-0.323-0.352-0.485-0.525
			c-0.881-0.938-1.778-1.892-2.696-2.85c-1.605-1.682-3.201-3.343-4.774-4.944c-0.78-0.796-0.768-2.078,0.028-2.858
			c0.796-0.788,2.082-0.772,2.858,0.028c10.441,10.651,18.804,19.916,25.631,29.544c-3.581-40.171-37.378-71.781-78.466-71.781
			C-883.126,359.649-884.032,360.554-884.032,361.67z"/>
	</g>
</g>
<text transform="matrix(1 0 0 1 -775.4881 431.5133)" fill="#85A3C9" font-family="'FuturaBT-Book'" font-size="82.3181">levemente</text>
</svg>
