<?xml version="1.0" encoding="utf-8"?>
<!-- Generator: Adobe Illustrator 17.0.0, SVG Export Plug-In . SVG Version: 6.00 Build 0)  -->
<!DOCTYPE svg PUBLIC "-//W3C//DTD SVG 1.1//EN" "http://www.w3.org/Graphics/SVG/1.1/DTD/svg11.dtd">
<svg version="1.1" id="Camada_1" xmlns="http://www.w3.org/2000/svg" xmlns:xlink="http://www.w3.org/1999/xlink" x="0px" y="0px"
	 width="750.215px" height="599.056px" viewBox="0 0 750.215 599.056" enable-background="new 0 0 750.215 599.056"
	 xml:space="preserve">
<rect x="-908.955" y="-228.634" fill="#85A3C9" width="750.215" height="305.738"/>
<path fill="#85A3C9" d="M671.775-213.78c0,47.298-38.343,85.641-85.641,85.641h-479.59c-47.298,0-85.641-38.343-85.641-85.641l0,0
	c0-47.298,38.343-85.641,85.641-85.641h479.59C633.432-299.421,671.775-261.078,671.775-213.78L671.775-213.78z"/>
<g>
	<path fill="#FFFFFF" d="M237.311-169.514c-0.203,1.443-2.114,3.821-6.24,3.821c-3.557,0-6.931-2.216-6.931-7.541
		s3.558-7.54,7.135-7.54c3.882,0,5.854,2.215,6.057,3.598h-2.135c-0.102-0.529-1.179-1.932-3.922-1.932
		c-3.618,0-5.062,2.643-5.062,5.874s1.24,5.874,4.857,5.874c2.988,0,4.045-1.646,4.146-2.154H237.311z"/>
	<path fill="#FFFFFF" d="M247.512-168.559c-0.082,0.549-0.996,2.784-4.208,2.784c-2.845,0-4.694-1.931-4.694-5.264
		c0-3.028,1.809-5.102,4.634-5.102c3.272,0,4.492,2.521,4.492,5.549h-7.338c0.062,1.85,0.895,3.354,3.049,3.354
		c1.688,0,2.236-1.158,2.317-1.626L247.512-168.559z M245.967-171.811c-0.143-2.113-1.199-2.865-2.683-2.865
		c-1.484,0-2.643,1.138-2.825,2.865H245.967z"/>
	<path fill="#FFFFFF" d="M249.908-175.836h1.544v1.159c0.854-1.18,2.094-1.464,3.212-1.464c2.113,0,3.211,1.077,3.211,3.679v6.402
		h-1.646v-6.402c0-1.524-0.508-2.154-2.073-2.154c-1.991,0-2.602,1.036-2.602,2.784v5.772h-1.646V-175.836z"/>
	<path fill="#FFFFFF" d="M263.056-175.836h2.764v1.342h-2.764v5.792c0,1.139,0.203,1.383,1.097,1.383
		c1.017,0,1.667-0.163,1.667-0.163v1.423c0,0-1.139,0.162-2.175,0.162c-1.87,0-2.235-0.914-2.235-2.174v-6.423h-1.748v-1.342h1.748
		v-2.967h1.646V-175.836z"/>
	<path fill="#FFFFFF" d="M269.313-175.836v1.382c0.772-1.32,2.398-1.768,3.374-1.768v1.748c0,0-0.305-0.062-0.671-0.062
		c-1.626,0-2.602,0.793-2.602,2.968v5.508h-1.646v-9.776H269.313z"/>
	<path fill="#FFFFFF" d="M282.767-171.059c0,2.724-1.443,5.284-4.757,5.284c-3.313,0-4.593-2.561-4.593-5.284
		s1.442-5.081,4.756-5.081C281.486-176.14,282.767-173.783,282.767-171.059z M281.04-170.998c0-2.216-0.793-3.598-2.887-3.598
		s-3.049,1.382-3.049,3.598c0,2.215,0.793,3.8,2.887,3.8C280.084-167.198,281.04-168.783,281.04-170.998z"/>
	<path fill="#FFFFFF" d="M299.451-180.429v14.369h-1.524v-1.321c-0.406,0.63-1.443,1.605-3.374,1.605
		c-3.272,0-4.431-2.337-4.431-5.162c0-4.105,2.337-5.203,4.41-5.203c2.094,0,2.988,1.22,3.293,1.605v-5.894H299.451z
		 M294.817-174.657c-1.606,0-2.968,0.874-2.968,3.639c0,2.215,0.793,3.882,2.987,3.882c1.524,0,3.028-0.935,3.028-3.801
		C297.865-173.966,296.138-174.657,294.817-174.657z"/>
	<path fill="#FFFFFF" d="M310.952-171.059c0,2.724-1.443,5.284-4.757,5.284c-3.313,0-4.593-2.561-4.593-5.284
		s1.443-5.081,4.756-5.081S310.952-173.783,310.952-171.059z M309.224-170.998c0-2.216-0.792-3.598-2.886-3.598
		s-3.049,1.382-3.049,3.598c0,2.215,0.793,3.8,2.887,3.8C308.268-167.198,309.224-168.783,309.224-170.998z"/>
	<path fill="#FFFFFF" d="M319.2-180.429h6.057c2.175,0,4.756,0.65,4.756,3.679c0,1.747-1.118,2.886-2.195,3.211
		c0.549,0.163,2.643,0.711,2.643,3.517c0,3.089-2.114,3.963-5.406,3.963H319.2V-180.429z M321.009-178.742v4.451h3.313
		c2.236,0,3.679-0.305,3.679-2.357s-1.971-2.094-2.743-2.094H321.009z M321.009-172.604v4.858h4.045
		c1.687,0,3.435-0.143,3.435-2.419c0-2.357-1.951-2.439-4.167-2.439H321.009z"/>
	<path fill="#FFFFFF" d="M341.35-168.559c-0.082,0.549-0.996,2.784-4.207,2.784c-2.846,0-4.695-1.931-4.695-5.264
		c0-3.028,1.809-5.102,4.634-5.102c3.272,0,4.492,2.521,4.492,5.549h-7.338c0.062,1.85,0.895,3.354,3.049,3.354
		c1.688,0,2.236-1.158,2.317-1.626L341.35-168.559z M339.806-171.811c-0.143-2.113-1.199-2.865-2.683-2.865
		c-1.484,0-2.643,1.138-2.825,2.865H339.806z"/>
	<path fill="#FFFFFF" d="M345.291-175.836v1.24c0.671-1.22,2.033-1.545,2.744-1.545c1.565,0,2.521,0.711,2.765,1.769
		c0.69-1.342,2.215-1.769,3.028-1.769c2.175,0,3.109,1.321,3.109,3.455v6.626h-1.646v-6.402c0-1.301-0.366-2.154-1.91-2.154
		c-1.688,0-2.276,1.077-2.276,2.561v5.996h-1.586v-6.382c0-1.301-0.365-2.175-1.931-2.175c-1.646,0-2.195,1.077-2.195,2.561v5.996
		h-1.646v-9.776H345.291z"/>
	<path fill="#FFFFFF" d="M367.481-172.604v4.858h8.313v1.687h-10.142v-14.369h9.897v1.687h-8.068v4.451h7.012v1.687H367.481z"/>
	<path fill="#FFFFFF" d="M383.8-168.58c0-1.098-0.833-1.321-2.439-1.707c-2.012-0.487-3.902-0.996-3.902-2.987
		c0-1.951,1.646-2.866,3.659-2.866c2.378,0,4.004,1.26,4.126,2.784l-1.748,0.305c-0.041-0.65-0.772-1.728-2.357-1.728
		c-1.261,0-2.054,0.569-2.054,1.301c0,0.915,0.65,1.199,2.744,1.708c1.605,0.386,3.658,0.976,3.658,2.987
		c0,1.972-1.809,3.008-4.247,3.008c-2.379,0-4.004-1.26-4.126-2.784l1.747-0.305c0.041,0.65,0.772,1.728,2.358,1.728
		C382.845-167.137,383.8-167.746,383.8-168.58z"/>
	<path fill="#FFFFFF" d="M390.058-175.836h2.764v1.342h-2.764v5.792c0,1.139,0.203,1.383,1.097,1.383
		c1.017,0,1.667-0.163,1.667-0.163v1.423c0,0-1.139,0.162-2.175,0.162c-1.87,0-2.235-0.914-2.235-2.174v-6.423h-1.748v-1.342h1.748
		v-2.967h1.646V-175.836z"/>
	<path fill="#FFFFFF" d="M402.352-168.905c0,1.139,0,1.586,0.69,1.586c0.427,0,0.854-0.122,0.854-0.122v1.382
		c0,0-0.467,0.122-1.036,0.122c-1.26,0-1.931-0.712-1.931-1.667c-0.203,0.528-1.179,1.829-3.15,1.829
		c-2.154,0-3.435-0.833-3.435-2.805c0-2.215,2.053-2.865,3.658-3.19c2.093-0.427,2.743-0.631,2.743-1.708
		c0-0.833-0.792-1.301-2.053-1.301c-1.585,0-2.316,1.077-2.357,1.728l-1.748-0.305c0.122-1.524,1.748-2.784,4.126-2.784
		c2.013,0,3.699,0.711,3.679,2.866L402.352-168.905z M397.8-167.137c1.585,0,2.906-1.036,2.927-2.541l0.02-1.768
		c0,0-0.528,0.609-2.276,0.955c-1.605,0.325-2.438,0.813-2.438,1.91C396.031-167.746,396.58-167.137,397.8-167.137z"/>
	<path fill="#FFFFFF" d="M407.125-175.836v1.382c0.772-1.32,2.398-1.768,3.374-1.768v1.748c0,0-0.305-0.062-0.671-0.062
		c-1.626,0-2.602,0.793-2.602,2.968v5.508h-1.646v-9.776H407.125z"/>
	<path fill="#FFFFFF" d="M426.615-180.429v14.369h-1.524v-1.321c-0.406,0.63-1.443,1.605-3.374,1.605
		c-3.272,0-4.431-2.337-4.431-5.162c0-4.105,2.337-5.203,4.41-5.203c2.094,0,2.988,1.22,3.293,1.605v-5.894H426.615z
		 M421.981-174.657c-1.606,0-2.968,0.874-2.968,3.639c0,2.215,0.793,3.882,2.987,3.882c1.524,0,3.028-0.935,3.028-3.801
		C425.029-173.966,423.302-174.657,421.981-174.657z"/>
	<path fill="#FFFFFF" d="M436.917-168.905c0,1.139,0,1.586,0.69,1.586c0.427,0,0.854-0.122,0.854-0.122v1.382
		c0,0-0.467,0.122-1.036,0.122c-1.26,0-1.931-0.712-1.931-1.667c-0.203,0.528-1.179,1.829-3.15,1.829
		c-2.154,0-3.435-0.833-3.435-2.805c0-2.215,2.053-2.865,3.658-3.19c2.093-0.427,2.743-0.631,2.743-1.708
		c0-0.833-0.792-1.301-2.053-1.301c-1.585,0-2.316,1.077-2.357,1.728l-1.748-0.305c0.122-1.524,1.748-2.784,4.126-2.784
		c2.013,0,3.699,0.711,3.679,2.866L436.917-168.905z M432.364-167.137c1.585,0,2.906-1.036,2.927-2.541l0.02-1.768
		c0,0-0.528,0.609-2.276,0.955c-1.605,0.325-2.438,0.813-2.438,1.91C430.596-167.746,431.144-167.137,432.364-167.137z"/>
	<path fill="#FFFFFF" d="M453.965-167.706l4.309-12.723h3.13l0.407,14.369h-1.891l-0.244-12.927h-0.121l-4.472,12.927h-2.378
		l-4.451-12.927h-0.122l-0.244,12.927h-1.87l0.407-14.369h3.13l4.288,12.723H453.965z"/>
	<path fill="#FFFFFF" d="M473.209-168.559c-0.082,0.549-0.996,2.784-4.208,2.784c-2.845,0-4.694-1.931-4.694-5.264
		c0-3.028,1.809-5.102,4.634-5.102c3.272,0,4.492,2.521,4.492,5.549h-7.338c0.062,1.85,0.895,3.354,3.049,3.354
		c1.688,0,2.236-1.158,2.317-1.626L473.209-168.559z M471.664-171.811c-0.143-2.113-1.199-2.865-2.683-2.865
		c-1.484,0-2.643,1.138-2.825,2.865H471.664z"/>
	<path fill="#FFFFFF" d="M475.604-175.836h1.544v1.159c0.854-1.18,2.094-1.464,3.212-1.464c2.113,0,3.211,1.077,3.211,3.679v6.402
		h-1.646v-6.402c0-1.524-0.508-2.154-2.073-2.154c-1.991,0-2.602,1.036-2.602,2.784v5.772h-1.646V-175.836z"/>
	<path fill="#FFFFFF" d="M488.753-175.836h2.764v1.342h-2.764v5.792c0,1.139,0.203,1.383,1.097,1.383
		c1.017,0,1.667-0.163,1.667-0.163v1.423c0,0-1.139,0.162-2.175,0.162c-1.87,0-2.235-0.914-2.235-2.174v-6.423h-1.748v-1.342h1.748
		v-2.967h1.646V-175.836z"/>
	<path fill="#FFFFFF" d="M501.597-168.559c-0.082,0.549-0.996,2.784-4.207,2.784c-2.846,0-4.695-1.931-4.695-5.264
		c0-3.028,1.809-5.102,4.634-5.102c3.272,0,4.492,2.521,4.492,5.549h-7.338c0.062,1.85,0.895,3.354,3.049,3.354
		c1.688,0,2.236-1.158,2.317-1.626L501.597-168.559z M500.052-171.811c-0.143-2.113-1.199-2.865-2.683-2.865
		c-1.484,0-2.643,1.138-2.825,2.865H500.052z"/>
	<path fill="#FFFFFF" d="M519.926-172.604h-8.028v6.545h-1.829v-14.369h1.829v6.138h8.028v-6.138h1.829v14.369h-1.829V-172.604z"/>
	<path fill="#FFFFFF" d="M533.092-166.059h-1.545v-1.26c-0.813,1.219-2.134,1.564-3.252,1.564c-2.113,0-3.17-1.077-3.17-3.679
		v-6.402h1.646v6.402c0,1.524,0.468,2.154,2.033,2.154c1.991,0,2.642-1.036,2.642-2.784v-5.772h1.646V-166.059z"/>
	<path fill="#FFFFFF" d="M537.419-175.836v1.24c0.671-1.22,2.033-1.545,2.744-1.545c1.565,0,2.521,0.711,2.765,1.769
		c0.69-1.342,2.215-1.769,3.028-1.769c2.175,0,3.109,1.321,3.109,3.455v6.626h-1.646v-6.402c0-1.301-0.365-2.154-1.91-2.154
		c-1.688,0-2.276,1.077-2.276,2.561v5.996h-1.586v-6.382c0-1.301-0.365-2.175-1.931-2.175c-1.646,0-2.195,1.077-2.195,2.561v5.996
		h-1.646v-9.776H537.419z"/>
	<path fill="#FFFFFF" d="M559.183-168.905c0,1.139,0,1.586,0.69,1.586c0.427,0,0.854-0.122,0.854-0.122v1.382
		c0,0-0.467,0.122-1.036,0.122c-1.26,0-1.931-0.712-1.931-1.667c-0.203,0.528-1.179,1.829-3.15,1.829
		c-2.154,0-3.436-0.833-3.436-2.805c0-2.215,2.054-2.865,3.659-3.19c2.093-0.427,2.743-0.631,2.743-1.708
		c0-0.833-0.792-1.301-2.053-1.301c-1.585,0-2.316,1.077-2.357,1.728l-1.748-0.305c0.122-1.524,1.748-2.784,4.126-2.784
		c2.013,0,3.699,0.711,3.679,2.866L559.183-168.905z M554.631-167.137c1.585,0,2.906-1.036,2.927-2.541l0.02-1.768
		c0,0-0.528,0.609-2.276,0.955c-1.605,0.325-2.438,0.813-2.438,1.91C552.862-167.746,553.411-167.137,554.631-167.137z"/>
	<path fill="#FFFFFF" d="M562.413-175.836h1.544v1.159c0.854-1.18,2.094-1.464,3.212-1.464c2.113,0,3.211,1.077,3.211,3.679v6.402
		h-1.646v-6.402c0-1.524-0.508-2.154-2.073-2.154c-1.991,0-2.602,1.036-2.602,2.784v5.772h-1.646V-175.836z"/>
	<path fill="#FFFFFF" d="M580.641-168.905c0,1.139,0,1.586,0.69,1.586c0.427,0,0.854-0.122,0.854-0.122v1.382
		c0,0-0.467,0.122-1.036,0.122c-1.26,0-1.931-0.712-1.931-1.667c-0.203,0.528-1.179,1.829-3.15,1.829
		c-2.154,0-3.435-0.833-3.435-2.805c0-2.215,2.053-2.865,3.658-3.19c2.093-0.427,2.743-0.631,2.743-1.708
		c0-0.833-0.792-1.301-2.053-1.301c-1.585,0-2.316,1.077-2.357,1.728l-1.748-0.305c0.122-1.524,1.748-2.784,4.126-2.784
		c2.013,0,3.699,0.711,3.679,2.866L580.641-168.905z M576.089-167.137c1.585,0,2.906-1.036,2.927-2.541l0.02-1.768
		c0,0-0.528,0.609-2.276,0.955c-1.605,0.325-2.438,0.813-2.438,1.91C574.32-167.746,574.869-167.137,576.089-167.137z"/>
</g>
<g>
	<g>
		<path fill="#A2C3E7" d="M110.148-264.132c0,8.614,1.455,17.224,4.333,25.591c0.158,0.461,0.485,0.853,0.909,1.095l13.424,7.672
			h-7.486c-0.711,0-1.37,0.376-1.738,0.982c-0.364,0.614-0.38,1.37-0.045,1.997c13.469,24.989,39.165,40.692,67.395,41.416
			c3.113,4.798,5.881,9.73,8.266,15.045c0.335,0.748,1.075,1.192,1.847,1.192c0.279,0,0.558-0.057,0.829-0.178
			c1.015-0.457,1.471-1.653,1.015-2.672c-6.698-14.936-15.922-26.961-28.825-40.777c-0.162-0.178-0.323-0.352-0.485-0.525
			c-0.881-0.938-1.778-1.892-2.696-2.85c-1.605-1.682-3.201-3.343-4.774-4.944c-0.78-0.796-0.768-2.078,0.028-2.858
			c0.796-0.788,2.082-0.772,2.858,0.028c10.441,10.651,18.804,19.916,25.631,29.544c-3.581-40.171-37.378-71.781-78.466-71.781
			C111.054-266.153,110.148-265.247,110.148-264.132z"/>
	</g>
</g>
<g>
	<path fill="#FFFFFF" d="M225.445-194.289v-62.302h6.431v62.302H225.445z"/>
	<path fill="#FFFFFF" d="M277.898-211.733h-29.141v0.563c0,3.939,1.126,7.121,3.376,9.546c2.251,2.426,5.186,3.638,8.803,3.638
		c2.465,0,4.689-0.663,6.673-1.989c1.982-1.326,3.737-3.329,5.266-6.009l4.782,3.215c-1.849,3.323-4.207,5.829-7.074,7.517
		c-2.867,1.688-6.189,2.532-9.968,2.532c-5.601,0-10.129-1.849-13.586-5.547c-3.456-3.697-5.185-8.547-5.185-14.55
		c0-5.762,1.714-10.478,5.145-14.148c3.43-3.671,7.838-5.507,13.224-5.507c5.439,0,9.747,1.742,12.923,5.226
		s4.763,8.239,4.763,14.269V-211.733z M271.146-216.838c-0.215-3.242-1.293-5.741-3.236-7.496c-1.942-1.755-4.602-2.633-7.979-2.633
		c-3.055,0-5.601,0.918-7.637,2.753c-2.037,1.836-3.216,4.295-3.537,7.376H271.146z"/>
	<path fill="#FFFFFF" d="M299.482-191.998l-18.208-39.069h7.074l11.054,25.685l11.094-25.685h7.074L299.482-191.998z"/>
	<path fill="#FFFFFF" d="M357.202-211.733h-29.141v0.563c0,3.939,1.126,7.121,3.376,9.546c2.251,2.426,5.186,3.638,8.803,3.638
		c2.465,0,4.689-0.663,6.673-1.989c1.982-1.326,3.737-3.329,5.266-6.009l4.782,3.215c-1.849,3.323-4.207,5.829-7.074,7.517
		c-2.867,1.688-6.189,2.532-9.968,2.532c-5.601,0-10.129-1.849-13.586-5.547c-3.456-3.697-5.185-8.547-5.185-14.55
		c0-5.762,1.714-10.478,5.145-14.148c3.43-3.671,7.838-5.507,13.224-5.507c5.439,0,9.747,1.742,12.923,5.226
		s4.763,8.239,4.763,14.269V-211.733z M350.45-216.838c-0.215-3.242-1.293-5.741-3.236-7.496c-1.942-1.755-4.602-2.633-7.979-2.633
		c-3.055,0-5.601,0.918-7.637,2.753c-2.037,1.836-3.216,4.295-3.537,7.376H350.45z"/>
	<path fill="#FFFFFF" d="M417.895-194.289v-21.665c0-3.724-0.75-6.491-2.251-8.3s-3.805-2.713-6.913-2.713
		c-1.688,0-3.25,0.342-4.683,1.024c-1.434,0.684-2.646,1.655-3.638,2.914c-0.724,0.965-1.246,2.091-1.567,3.377
		c-0.322,1.286-0.482,3.403-0.482,6.351v19.012h-6.069v-21.665c0-3.724-0.751-6.491-2.251-8.3c-1.501-1.809-3.806-2.713-6.913-2.713
		c-1.688,0-3.263,0.342-4.724,1.024c-1.461,0.684-2.687,1.655-3.678,2.914c-0.697,0.938-1.199,2.023-1.507,3.256
		c-0.309,1.233-0.463,3.391-0.463,6.472v19.012h-6.069v-36.778h6.15v5.668c1.527-2.357,3.349-4.113,5.466-5.266
		c2.117-1.151,4.556-1.729,7.315-1.729c2.975,0,5.507,0.637,7.597,1.909c2.091,1.273,3.671,3.129,4.743,5.567
		c1.581-2.519,3.45-4.395,5.607-5.627c2.156-1.232,4.655-1.85,7.496-1.85c4.1,0,7.302,1.152,9.606,3.457s3.457,5.507,3.457,9.606
		v25.041H417.895z"/>
	<path fill="#FFFFFF" d="M469.344-211.733h-29.141v0.563c0,3.939,1.126,7.121,3.376,9.546c2.251,2.426,5.186,3.638,8.803,3.638
		c2.465,0,4.689-0.663,6.673-1.989c1.982-1.326,3.737-3.329,5.266-6.009l4.782,3.215c-1.849,3.323-4.207,5.829-7.074,7.517
		c-2.867,1.688-6.189,2.532-9.968,2.532c-5.601,0-10.129-1.849-13.586-5.547c-3.456-3.697-5.185-8.547-5.185-14.55
		c0-5.762,1.714-10.478,5.145-14.148c3.43-3.671,7.838-5.507,13.224-5.507c5.439,0,9.747,1.742,12.923,5.226
		s4.763,8.239,4.763,14.269V-211.733z M462.592-216.838c-0.215-3.242-1.293-5.741-3.236-7.496c-1.942-1.755-4.602-2.633-7.979-2.633
		c-3.055,0-5.601,0.918-7.637,2.753c-2.037,1.836-3.216,4.295-3.537,7.376H462.592z"/>
	<path fill="#FFFFFF" d="M478.83-194.289v-36.778h6.15v5.668c1.58-2.357,3.482-4.113,5.707-5.266
		c2.225-1.151,4.797-1.729,7.718-1.729c4.341,0,7.73,1.152,10.169,3.457s3.658,5.507,3.658,9.606v25.041h-6.432v-21.665
		c0-3.724-0.783-6.491-2.352-8.3c-1.567-1.809-3.985-2.713-7.255-2.713c-1.876,0-3.584,0.342-5.125,1.024
		c-1.541,0.684-2.82,1.655-3.838,2.914c-0.777,0.965-1.334,2.064-1.668,3.296c-0.336,1.233-0.503,3.377-0.503,6.432v19.012H478.83z"
		/>
	<path fill="#FFFFFF" d="M525.656-225.882h-6.752v-5.186h6.752v-14.831h6.432v14.831h6.752v5.186h-6.752v31.593h-6.432V-225.882z"/>
	<path fill="#FFFFFF" d="M578.834-211.733h-29.141v0.563c0,3.939,1.126,7.121,3.376,9.546c2.251,2.426,5.186,3.638,8.803,3.638
		c2.465,0,4.689-0.663,6.673-1.989c1.982-1.326,3.737-3.329,5.266-6.009l4.782,3.215c-1.849,3.323-4.207,5.829-7.074,7.517
		c-2.867,1.688-6.189,2.532-9.968,2.532c-5.601,0-10.129-1.849-13.586-5.547c-3.456-3.697-5.185-8.547-5.185-14.55
		c0-5.762,1.714-10.478,5.145-14.148c3.43-3.671,7.838-5.507,13.224-5.507c5.439,0,9.747,1.742,12.923,5.226
		s4.763,8.239,4.763,14.269V-211.733z M572.082-216.838c-0.215-3.242-1.293-5.741-3.236-7.496c-1.942-1.755-4.602-2.633-7.979-2.633
		c-3.055,0-5.601,0.918-7.637,2.753c-2.037,1.836-3.216,4.295-3.537,7.376H572.082z"/>
</g>
<path fill="#FFFFFF" d="M712.099,299.528c0,47.298-38.343,85.641-85.641,85.641h-479.59c-47.298,0-85.641-38.343-85.641-85.641l0,0
	c0-47.298,38.343-85.641,85.641-85.641h479.59C673.756,213.887,712.099,252.23,712.099,299.528L712.099,299.528z"/>
<g>
	<path fill="#85A3C9" d="M277.635,343.793c-0.203,1.443-2.114,3.821-6.24,3.821c-3.557,0-6.931-2.216-6.931-7.541
		s3.558-7.54,7.135-7.54c3.882,0,5.854,2.215,6.057,3.598h-2.135c-0.102-0.529-1.179-1.932-3.922-1.932
		c-3.618,0-5.062,2.643-5.062,5.874s1.24,5.874,4.857,5.874c2.988,0,4.045-1.646,4.146-2.154H277.635z"/>
	<path fill="#85A3C9" d="M287.835,344.748c-0.082,0.549-0.996,2.784-4.208,2.784c-2.845,0-4.694-1.931-4.694-5.264
		c0-3.028,1.809-5.102,4.634-5.102c3.272,0,4.492,2.521,4.492,5.549h-7.338c0.062,1.85,0.895,3.354,3.049,3.354
		c1.688,0,2.236-1.158,2.317-1.626L287.835,344.748z M286.29,341.496c-0.143-2.113-1.199-2.865-2.683-2.865
		c-1.484,0-2.643,1.138-2.825,2.865H286.29z"/>
	<path fill="#85A3C9" d="M290.232,337.471h1.544v1.159c0.854-1.18,2.094-1.464,3.212-1.464c2.113,0,3.211,1.077,3.211,3.679v6.402
		h-1.646v-6.402c0-1.524-0.508-2.154-2.073-2.154c-1.991,0-2.602,1.036-2.602,2.784v5.772h-1.646V337.471z"/>
	<path fill="#85A3C9" d="M303.379,337.471h2.764v1.342h-2.764v5.792c0,1.139,0.203,1.383,1.097,1.383
		c1.017,0,1.667-0.163,1.667-0.163v1.423c0,0-1.139,0.162-2.175,0.162c-1.87,0-2.235-0.914-2.235-2.174v-6.423h-1.748v-1.342h1.748
		v-2.967h1.646V337.471z"/>
	<path fill="#85A3C9" d="M309.637,337.471v1.382c0.772-1.32,2.398-1.768,3.374-1.768v1.748c0,0-0.305-0.062-0.671-0.062
		c-1.626,0-2.602,0.793-2.602,2.968v5.508h-1.646v-9.776H309.637z"/>
	<path fill="#85A3C9" d="M323.091,342.248c0,2.724-1.443,5.284-4.757,5.284c-3.313,0-4.593-2.561-4.593-5.284
		s1.442-5.081,4.756-5.081C321.81,337.167,323.091,339.524,323.091,342.248z M321.364,342.309c0-2.216-0.793-3.598-2.887-3.598
		s-3.049,1.382-3.049,3.598c0,2.215,0.793,3.8,2.887,3.8C320.408,346.109,321.364,344.524,321.364,342.309z"/>
	<path fill="#85A3C9" d="M339.775,332.879v14.369h-1.524v-1.321c-0.406,0.63-1.443,1.605-3.374,1.605
		c-3.272,0-4.431-2.337-4.431-5.162c0-4.105,2.337-5.203,4.41-5.203c2.094,0,2.988,1.22,3.293,1.605v-5.894H339.775z
		 M335.141,338.65c-1.606,0-2.968,0.874-2.968,3.639c0,2.215,0.793,3.882,2.987,3.882c1.524,0,3.028-0.935,3.028-3.801
		C338.189,339.342,336.461,338.65,335.141,338.65z"/>
	<path fill="#85A3C9" d="M351.276,342.248c0,2.724-1.443,5.284-4.757,5.284c-3.313,0-4.593-2.561-4.593-5.284
		s1.443-5.081,4.756-5.081S351.276,339.524,351.276,342.248z M349.547,342.309c0-2.216-0.792-3.598-2.886-3.598
		s-3.049,1.382-3.049,3.598c0,2.215,0.793,3.8,2.887,3.8C348.592,346.109,349.547,344.524,349.547,342.309z"/>
	<path fill="#85A3C9" d="M359.524,332.879h6.057c2.175,0,4.756,0.65,4.756,3.679c0,1.747-1.118,2.886-2.195,3.211
		c0.549,0.163,2.643,0.711,2.643,3.517c0,3.089-2.114,3.963-5.406,3.963h-5.854V332.879z M361.332,334.565v4.451h3.313
		c2.236,0,3.679-0.305,3.679-2.357s-1.971-2.094-2.743-2.094H361.332z M361.332,340.703v4.858h4.045
		c1.687,0,3.435-0.143,3.435-2.419c0-2.357-1.951-2.439-4.167-2.439H361.332z"/>
	<path fill="#85A3C9" d="M381.674,344.748c-0.082,0.549-0.996,2.784-4.207,2.784c-2.846,0-4.695-1.931-4.695-5.264
		c0-3.028,1.809-5.102,4.634-5.102c3.272,0,4.492,2.521,4.492,5.549h-7.338c0.062,1.85,0.895,3.354,3.049,3.354
		c1.688,0,2.236-1.158,2.317-1.626L381.674,344.748z M380.129,341.496c-0.143-2.113-1.199-2.865-2.683-2.865
		c-1.484,0-2.643,1.138-2.825,2.865H380.129z"/>
	<path fill="#85A3C9" d="M385.615,337.471v1.24c0.671-1.22,2.033-1.545,2.744-1.545c1.565,0,2.521,0.711,2.765,1.769
		c0.69-1.342,2.215-1.769,3.028-1.769c2.175,0,3.109,1.321,3.109,3.455v6.626h-1.646v-6.402c0-1.301-0.366-2.154-1.91-2.154
		c-1.688,0-2.276,1.077-2.276,2.561v5.996h-1.586v-6.382c0-1.301-0.365-2.175-1.931-2.175c-1.646,0-2.195,1.077-2.195,2.561v5.996
		h-1.646v-9.776H385.615z"/>
	<path fill="#85A3C9" d="M407.805,340.703v4.858h8.313v1.687h-10.142v-14.369h9.897v1.687h-8.068v4.451h7.012v1.687H407.805z"/>
	<path fill="#85A3C9" d="M424.123,344.727c0-1.098-0.833-1.321-2.439-1.707c-2.012-0.487-3.902-0.996-3.902-2.987
		c0-1.951,1.646-2.866,3.659-2.866c2.378,0,4.004,1.26,4.126,2.784l-1.748,0.305c-0.041-0.65-0.772-1.728-2.357-1.728
		c-1.261,0-2.054,0.569-2.054,1.301c0,0.915,0.65,1.199,2.744,1.708c1.605,0.386,3.658,0.976,3.658,2.987
		c0,1.972-1.809,3.008-4.247,3.008c-2.379,0-4.004-1.26-4.126-2.784l1.747-0.305c0.041,0.65,0.772,1.728,2.358,1.728
		C423.168,346.171,424.123,345.561,424.123,344.727z"/>
	<path fill="#85A3C9" d="M430.381,337.471h2.764v1.342h-2.764v5.792c0,1.139,0.203,1.383,1.097,1.383
		c1.017,0,1.667-0.163,1.667-0.163v1.423c0,0-1.139,0.162-2.175,0.162c-1.87,0-2.235-0.914-2.235-2.174v-6.423h-1.748v-1.342h1.748
		v-2.967h1.646V337.471z"/>
	<path fill="#85A3C9" d="M442.676,344.402c0,1.139,0,1.586,0.69,1.586c0.427,0,0.854-0.122,0.854-0.122v1.382
		c0,0-0.467,0.122-1.036,0.122c-1.26,0-1.931-0.712-1.931-1.667c-0.203,0.528-1.179,1.829-3.15,1.829
		c-2.154,0-3.435-0.833-3.435-2.805c0-2.215,2.053-2.865,3.658-3.19c2.093-0.427,2.743-0.631,2.743-1.708
		c0-0.833-0.792-1.301-2.053-1.301c-1.585,0-2.316,1.077-2.357,1.728l-1.748-0.305c0.122-1.524,1.748-2.784,4.126-2.784
		c2.013,0,3.699,0.711,3.679,2.866L442.676,344.402z M438.123,346.171c1.585,0,2.906-1.036,2.927-2.541l0.02-1.768
		c0,0-0.528,0.609-2.276,0.955c-1.605,0.325-2.438,0.813-2.438,1.91C436.355,345.561,436.904,346.171,438.123,346.171z"/>
	<path fill="#85A3C9" d="M447.449,337.471v1.382c0.772-1.32,2.398-1.768,3.374-1.768v1.748c0,0-0.305-0.062-0.671-0.062
		c-1.626,0-2.602,0.793-2.602,2.968v5.508h-1.646v-9.776H447.449z"/>
	<path fill="#85A3C9" d="M466.939,332.879v14.369h-1.524v-1.321c-0.406,0.63-1.443,1.605-3.374,1.605
		c-3.272,0-4.431-2.337-4.431-5.162c0-4.105,2.337-5.203,4.41-5.203c2.094,0,2.988,1.22,3.293,1.605v-5.894H466.939z
		 M462.305,338.65c-1.606,0-2.968,0.874-2.968,3.639c0,2.215,0.793,3.882,2.987,3.882c1.524,0,3.028-0.935,3.028-3.801
		C465.353,339.342,463.625,338.65,462.305,338.65z"/>
	<path fill="#85A3C9" d="M477.241,344.402c0,1.139,0,1.586,0.69,1.586c0.427,0,0.854-0.122,0.854-0.122v1.382
		c0,0-0.467,0.122-1.036,0.122c-1.26,0-1.931-0.712-1.931-1.667c-0.203,0.528-1.179,1.829-3.15,1.829
		c-2.154,0-3.435-0.833-3.435-2.805c0-2.215,2.053-2.865,3.658-3.19c2.093-0.427,2.743-0.631,2.743-1.708
		c0-0.833-0.792-1.301-2.053-1.301c-1.585,0-2.316,1.077-2.357,1.728l-1.748-0.305c0.122-1.524,1.748-2.784,4.126-2.784
		c2.013,0,3.699,0.711,3.679,2.866L477.241,344.402z M472.688,346.171c1.585,0,2.906-1.036,2.927-2.541l0.02-1.768
		c0,0-0.528,0.609-2.276,0.955c-1.605,0.325-2.438,0.813-2.438,1.91C470.919,345.561,471.468,346.171,472.688,346.171z"/>
	<path fill="#85A3C9" d="M494.288,345.601l4.309-12.723h3.13l0.407,14.369h-1.891l-0.244-12.927h-0.121l-4.472,12.927h-2.378
		l-4.451-12.927h-0.122l-0.244,12.927h-1.87l0.407-14.369h3.13l4.288,12.723H494.288z"/>
	<path fill="#85A3C9" d="M513.533,344.748c-0.082,0.549-0.996,2.784-4.208,2.784c-2.845,0-4.694-1.931-4.694-5.264
		c0-3.028,1.809-5.102,4.634-5.102c3.272,0,4.492,2.521,4.492,5.549h-7.338c0.062,1.85,0.895,3.354,3.049,3.354
		c1.688,0,2.236-1.158,2.317-1.626L513.533,344.748z M511.988,341.496c-0.143-2.113-1.199-2.865-2.683-2.865
		c-1.484,0-2.643,1.138-2.825,2.865H511.988z"/>
	<path fill="#85A3C9" d="M515.928,337.471h1.544v1.159c0.854-1.18,2.094-1.464,3.212-1.464c2.113,0,3.211,1.077,3.211,3.679v6.402
		h-1.646v-6.402c0-1.524-0.508-2.154-2.073-2.154c-1.991,0-2.602,1.036-2.602,2.784v5.772h-1.646V337.471z"/>
	<path fill="#85A3C9" d="M529.077,337.471h2.764v1.342h-2.764v5.792c0,1.139,0.203,1.383,1.097,1.383
		c1.017,0,1.667-0.163,1.667-0.163v1.423c0,0-1.139,0.162-2.175,0.162c-1.87,0-2.235-0.914-2.235-2.174v-6.423h-1.748v-1.342h1.748
		v-2.967h1.646V337.471z"/>
	<path fill="#85A3C9" d="M541.92,344.748c-0.082,0.549-0.996,2.784-4.207,2.784c-2.846,0-4.695-1.931-4.695-5.264
		c0-3.028,1.809-5.102,4.634-5.102c3.272,0,4.492,2.521,4.492,5.549h-7.338c0.062,1.85,0.895,3.354,3.049,3.354
		c1.688,0,2.236-1.158,2.317-1.626L541.92,344.748z M540.375,341.496c-0.143-2.113-1.199-2.865-2.683-2.865
		c-1.484,0-2.643,1.138-2.825,2.865H540.375z"/>
	<path fill="#85A3C9" d="M560.249,340.703h-8.028v6.545h-1.829v-14.369h1.829v6.138h8.028v-6.138h1.829v14.369h-1.829V340.703z"/>
	<path fill="#85A3C9" d="M573.415,347.248h-1.545v-1.26c-0.813,1.219-2.134,1.564-3.252,1.564c-2.113,0-3.17-1.077-3.17-3.679
		v-6.402h1.646v6.402c0,1.524,0.468,2.154,2.033,2.154c1.991,0,2.642-1.036,2.642-2.784v-5.772h1.646V347.248z"/>
	<path fill="#85A3C9" d="M577.743,337.471v1.24c0.671-1.22,2.033-1.545,2.744-1.545c1.565,0,2.521,0.711,2.765,1.769
		c0.69-1.342,2.215-1.769,3.028-1.769c2.175,0,3.109,1.321,3.109,3.455v6.626h-1.646v-6.402c0-1.301-0.365-2.154-1.91-2.154
		c-1.688,0-2.276,1.077-2.276,2.561v5.996h-1.586v-6.382c0-1.301-0.365-2.175-1.931-2.175c-1.646,0-2.195,1.077-2.195,2.561v5.996
		h-1.646v-9.776H577.743z"/>
	<path fill="#85A3C9" d="M599.507,344.402c0,1.139,0,1.586,0.69,1.586c0.427,0,0.854-0.122,0.854-0.122v1.382
		c0,0-0.467,0.122-1.036,0.122c-1.26,0-1.931-0.712-1.931-1.667c-0.203,0.528-1.179,1.829-3.15,1.829
		c-2.154,0-3.436-0.833-3.436-2.805c0-2.215,2.054-2.865,3.659-3.19c2.093-0.427,2.743-0.631,2.743-1.708
		c0-0.833-0.792-1.301-2.053-1.301c-1.585,0-2.316,1.077-2.357,1.728l-1.748-0.305c0.122-1.524,1.748-2.784,4.126-2.784
		c2.013,0,3.699,0.711,3.679,2.866L599.507,344.402z M594.954,346.171c1.585,0,2.906-1.036,2.927-2.541l0.02-1.768
		c0,0-0.528,0.609-2.276,0.955c-1.605,0.325-2.438,0.813-2.438,1.91C593.186,345.561,593.735,346.171,594.954,346.171z"/>
	<path fill="#85A3C9" d="M602.737,337.471h1.544v1.159c0.854-1.18,2.094-1.464,3.212-1.464c2.113,0,3.211,1.077,3.211,3.679v6.402
		h-1.646v-6.402c0-1.524-0.508-2.154-2.073-2.154c-1.991,0-2.602,1.036-2.602,2.784v5.772h-1.646V337.471z"/>
	<path fill="#85A3C9" d="M620.965,344.402c0,1.139,0,1.586,0.69,1.586c0.427,0,0.854-0.122,0.854-0.122v1.382
		c0,0-0.467,0.122-1.036,0.122c-1.26,0-1.931-0.712-1.931-1.667c-0.203,0.528-1.179,1.829-3.15,1.829
		c-2.154,0-3.435-0.833-3.435-2.805c0-2.215,2.053-2.865,3.658-3.19c2.093-0.427,2.743-0.631,2.743-1.708
		c0-0.833-0.792-1.301-2.053-1.301c-1.585,0-2.316,1.077-2.357,1.728l-1.748-0.305c0.122-1.524,1.748-2.784,4.126-2.784
		c2.013,0,3.699,0.711,3.679,2.866L620.965,344.402z M616.412,346.171c1.585,0,2.906-1.036,2.927-2.541l0.02-1.768
		c0,0-0.528,0.609-2.276,0.955c-1.605,0.325-2.438,0.813-2.438,1.91C614.644,345.561,615.193,346.171,616.412,346.171z"/>
</g>
<g>
	<g>
		<path fill="#85A3C9" d="M150.473,249.176c0,8.614,1.455,17.224,4.333,25.591c0.158,0.461,0.485,0.853,0.909,1.095l13.424,7.672
			h-7.486c-0.711,0-1.37,0.376-1.738,0.982c-0.364,0.614-0.38,1.37-0.045,1.997c13.469,24.989,39.165,40.692,67.395,41.416
			c3.113,4.798,5.881,9.73,8.266,15.045c0.335,0.748,1.075,1.192,1.847,1.192c0.279,0,0.558-0.057,0.829-0.178
			c1.015-0.457,1.471-1.653,1.015-2.672c-6.698-14.936-15.922-26.961-28.825-40.777c-0.162-0.178-0.323-0.352-0.485-0.525
			c-0.881-0.938-1.778-1.892-2.696-2.85c-1.605-1.682-3.201-3.343-4.774-4.944c-0.78-0.796-0.768-2.078,0.028-2.858
			c0.796-0.788,2.082-0.772,2.858,0.028c10.441,10.651,18.804,19.916,25.631,29.544c-3.581-40.171-37.378-71.781-78.466-71.781
			C151.378,247.155,150.473,248.06,150.473,249.176z"/>
	</g>
</g>
<g>
	<path fill="#85A3C9" d="M265.769,319.019v-62.302h6.431v62.302H265.769z"/>
	<path fill="#85A3C9" d="M318.222,301.575h-29.141v0.563c0,3.939,1.126,7.121,3.376,9.546c2.251,2.426,5.186,3.638,8.803,3.638
		c2.465,0,4.689-0.663,6.673-1.989c1.982-1.326,3.737-3.329,5.266-6.009l4.782,3.215c-1.849,3.323-4.207,5.829-7.074,7.517
		c-2.867,1.688-6.189,2.532-9.968,2.532c-5.601,0-10.129-1.849-13.586-5.547c-3.456-3.697-5.185-8.547-5.185-14.55
		c0-5.762,1.714-10.478,5.145-14.148c3.43-3.671,7.838-5.507,13.224-5.507c5.439,0,9.747,1.742,12.923,5.226
		s4.763,8.239,4.763,14.269V301.575z M311.47,296.47c-0.215-3.242-1.293-5.741-3.236-7.496c-1.942-1.755-4.602-2.633-7.979-2.633
		c-3.055,0-5.601,0.918-7.637,2.753c-2.037,1.836-3.216,4.295-3.537,7.376H311.47z"/>
	<path fill="#85A3C9" d="M339.806,321.31l-18.208-39.069h7.074l11.054,25.685l11.094-25.685h7.074L339.806,321.31z"/>
	<path fill="#85A3C9" d="M397.526,301.575h-29.141v0.563c0,3.939,1.126,7.121,3.376,9.546c2.251,2.426,5.186,3.638,8.803,3.638
		c2.465,0,4.689-0.663,6.673-1.989c1.982-1.326,3.737-3.329,5.266-6.009l4.782,3.215c-1.849,3.323-4.207,5.829-7.074,7.517
		c-2.867,1.688-6.189,2.532-9.968,2.532c-5.601,0-10.129-1.849-13.586-5.547c-3.456-3.697-5.185-8.547-5.185-14.55
		c0-5.762,1.714-10.478,5.145-14.148c3.43-3.671,7.838-5.507,13.224-5.507c5.439,0,9.747,1.742,12.923,5.226
		s4.763,8.239,4.763,14.269V301.575z M390.774,296.47c-0.215-3.242-1.293-5.741-3.236-7.496c-1.942-1.755-4.602-2.633-7.979-2.633
		c-3.055,0-5.601,0.918-7.637,2.753c-2.037,1.836-3.216,4.295-3.537,7.376H390.774z"/>
	<path fill="#85A3C9" d="M458.219,319.019v-21.665c0-3.724-0.75-6.491-2.251-8.3s-3.805-2.713-6.913-2.713
		c-1.688,0-3.25,0.342-4.683,1.024c-1.434,0.684-2.646,1.655-3.638,2.914c-0.724,0.965-1.246,2.091-1.567,3.377
		c-0.322,1.286-0.482,3.403-0.482,6.351v19.012h-6.069v-21.665c0-3.724-0.751-6.491-2.251-8.3c-1.501-1.809-3.806-2.713-6.913-2.713
		c-1.688,0-3.263,0.342-4.724,1.024c-1.461,0.684-2.687,1.655-3.678,2.914c-0.697,0.938-1.199,2.023-1.507,3.256
		c-0.309,1.233-0.463,3.391-0.463,6.472v19.012h-6.069v-36.778h6.15v5.668c1.527-2.357,3.349-4.113,5.466-5.266
		c2.117-1.151,4.556-1.729,7.315-1.729c2.975,0,5.507,0.637,7.597,1.909c2.091,1.273,3.671,3.129,4.743,5.567
		c1.581-2.519,3.45-4.395,5.607-5.627c2.156-1.232,4.655-1.85,7.496-1.85c4.1,0,7.302,1.152,9.606,3.457s3.457,5.507,3.457,9.606
		v25.041H458.219z"/>
	<path fill="#85A3C9" d="M509.667,301.575h-29.141v0.563c0,3.939,1.126,7.121,3.376,9.546c2.251,2.426,5.186,3.638,8.803,3.638
		c2.465,0,4.689-0.663,6.673-1.989c1.982-1.326,3.737-3.329,5.266-6.009l4.782,3.215c-1.849,3.323-4.207,5.829-7.074,7.517
		c-2.867,1.688-6.189,2.532-9.968,2.532c-5.601,0-10.129-1.849-13.586-5.547c-3.456-3.697-5.185-8.547-5.185-14.55
		c0-5.762,1.714-10.478,5.145-14.148c3.43-3.671,7.838-5.507,13.224-5.507c5.439,0,9.747,1.742,12.923,5.226
		s4.763,8.239,4.763,14.269V301.575z M502.915,296.47c-0.215-3.242-1.293-5.741-3.236-7.496c-1.942-1.755-4.602-2.633-7.979-2.633
		c-3.055,0-5.601,0.918-7.637,2.753c-2.037,1.836-3.216,4.295-3.537,7.376H502.915z"/>
	<path fill="#85A3C9" d="M519.154,319.019v-36.778h6.15v5.668c1.58-2.357,3.482-4.113,5.707-5.266
		c2.225-1.151,4.797-1.729,7.718-1.729c4.341,0,7.73,1.152,10.169,3.457s3.658,5.507,3.658,9.606v25.041h-6.432v-21.665
		c0-3.724-0.783-6.491-2.352-8.3c-1.567-1.809-3.985-2.713-7.255-2.713c-1.876,0-3.584,0.342-5.125,1.024
		c-1.541,0.684-2.82,1.655-3.838,2.914c-0.777,0.965-1.334,2.064-1.668,3.296c-0.336,1.233-0.503,3.377-0.503,6.432v19.012H519.154z
		"/>
	<path fill="#85A3C9" d="M565.98,287.427h-6.752v-5.186h6.752V267.41h6.432v14.831h6.752v5.186h-6.752v31.593h-6.432V287.427z"/>
	<path fill="#85A3C9" d="M619.158,301.575h-29.141v0.563c0,3.939,1.126,7.121,3.376,9.546c2.251,2.426,5.186,3.638,8.803,3.638
		c2.465,0,4.689-0.663,6.673-1.989c1.982-1.326,3.737-3.329,5.266-6.009l4.782,3.215c-1.849,3.323-4.207,5.829-7.074,7.517
		c-2.867,1.688-6.189,2.532-9.968,2.532c-5.601,0-10.129-1.849-13.586-5.547c-3.456-3.697-5.185-8.547-5.185-14.55
		c0-5.762,1.714-10.478,5.145-14.148c3.43-3.671,7.838-5.507,13.224-5.507c5.439,0,9.747,1.742,12.923,5.226
		s4.763,8.239,4.763,14.269V301.575z M612.406,296.47c-0.215-3.242-1.293-5.741-3.236-7.496c-1.942-1.755-4.602-2.633-7.979-2.633
		c-3.055,0-5.601,0.918-7.637,2.753c-2.037,1.836-3.216,4.295-3.537,7.376H612.406z"/>
</g>
<path fill="#FFFFFF" d="M-218.911-75.765c0,47.298-38.343,85.641-85.641,85.641h-479.59c-47.298,0-85.641-38.343-85.641-85.641l0,0
	c0-47.298,38.343-85.641,85.641-85.641h479.59C-257.254-161.406-218.911-123.063-218.911-75.765L-218.911-75.765z"/>
<text transform="matrix(1 0 0 1 -667.5812 -28.0453)" fill="#85A3C9" font-family="'AnalogueReduced-Regular'" font-size="20.3206">Centro do Bem Estar da Mente Humana</text>
<g>
	<g>
		<path fill="#85A3C9" d="M-780.537-126.117c0,8.614,1.455,17.224,4.333,25.591c0.158,0.461,0.485,0.853,0.909,1.095l13.424,7.672
			h-7.486c-0.711,0-1.37,0.376-1.738,0.982c-0.364,0.614-0.38,1.37-0.045,1.997c13.469,24.989,39.165,40.692,67.395,41.416
			c3.112,4.798,5.881,9.73,8.266,15.045c0.335,0.748,1.075,1.192,1.847,1.192c0.279,0,0.558-0.057,0.829-0.178
			c1.015-0.457,1.471-1.653,1.015-2.672c-6.698-14.936-15.922-26.961-28.825-40.777c-0.162-0.178-0.323-0.352-0.485-0.525
			c-0.881-0.938-1.778-1.892-2.696-2.85c-1.605-1.682-3.201-3.343-4.774-4.944c-0.78-0.796-0.768-2.078,0.028-2.858
			c0.796-0.788,2.082-0.772,2.858,0.028c10.441,10.651,18.804,19.916,25.631,29.544c-3.581-40.171-37.378-71.781-78.466-71.781
			C-779.632-128.139-780.537-127.233-780.537-126.117z"/>
	</g>
</g>
<text transform="matrix(1 0 0 1 -671.9933 -56.2741)" fill="#85A3C9" font-family="'FuturaBT-Book'" font-size="82.3181">levemente</text>
</svg>
